<svg xmlns="http://www.w3.org/2000/svg" fill="none" viewBox="0 0 300 189" version="1.1"><path d="M 95.762 1.707 C 97.006 1.946, 98.806 1.937, 99.762 1.687 C 100.718 1.437, 99.700 1.241, 97.500 1.252 C 95.300 1.263, 94.518 1.468, 95.762 1.707 M 195.370 20 C 195.370 25.775, 195.535 28.138, 195.737 25.250 C 195.939 22.363, 195.939 17.638, 195.737 14.750 C 195.535 11.863, 195.370 14.225, 195.370 20 M 136.500 15 C 137.495 16.100, 138.535 17, 138.810 17 C 139.085 17, 138.495 16.100, 137.500 15 C 136.505 13.900, 135.465 13, 135.190 13 C 134.915 13, 135.505 13.900, 136.500 15 M 53.306 31.747 C 59.800 31.922, 70.150 31.921, 76.306 31.746 C 82.463 31.571, 77.150 31.428, 64.500 31.429 C 51.850 31.429, 46.813 31.573, 53.306 31.747 M 40.426 54.500 C 40.427 66.600, 40.571 71.413, 40.747 65.195 C 40.923 58.977, 40.922 49.077, 40.746 43.195 C 40.569 37.313, 40.425 42.400, 40.426 54.500 M 147.158 38 C 147.158 39.375, 147.385 39.938, 147.662 39.250 C 147.940 38.563, 147.940 37.438, 147.662 36.750 C 147.385 36.063, 147.158 36.625, 147.158 38 M 224.762 46.707 C 226.006 46.946, 227.806 46.937, 228.762 46.687 C 229.718 46.437, 228.700 46.241, 226.500 46.252 C 224.300 46.263, 223.518 46.468, 224.762 46.707 M 238.250 46.689 C 239.213 46.941, 240.787 46.941, 241.750 46.689 C 242.713 46.438, 241.925 46.232, 240 46.232 C 238.075 46.232, 237.287 46.438, 238.250 46.689 M 147.158 55 C 147.158 56.375, 147.385 56.938, 147.662 56.250 C 147.940 55.563, 147.940 54.438, 147.662 53.750 C 147.385 53.063, 147.158 53.625, 147.158 55 M 184 65.500 C 181.571 67.975, 179.809 70, 180.084 70 C 180.359 70, 182.571 67.975, 185 65.500 C 187.429 63.025, 189.191 61, 188.916 61 C 188.641 61, 186.429 63.025, 184 65.500 M 276 61.313 C 276 61.485, 277.462 62.948, 279.250 64.563 L 282.500 67.500 279.563 64.250 C 276.825 61.221, 276 60.540, 276 61.313 M 136.453 76.250 L 132.500 80.500 136.750 76.547 C 140.702 72.871, 141.460 72, 140.703 72 C 140.540 72, 138.627 73.912, 136.453 76.250 M 229.768 72.725 C 231.565 72.947, 234.265 72.943, 235.768 72.715 C 237.271 72.486, 235.800 72.304, 232.500 72.310 C 229.200 72.315, 227.971 72.502, 229.768 72.725 M 288 77 C 288.589 78.100, 289.295 79, 289.570 79 C 289.845 79, 289.589 78.100, 289 77 C 288.411 75.900, 287.705 75, 287.430 75 C 287.155 75, 287.411 75.900, 288 77 M 53.807 77.747 C 60.576 77.921, 71.376 77.920, 77.807 77.746 C 84.238 77.572, 78.700 77.431, 65.500 77.431 C 52.300 77.432, 47.038 77.574, 53.807 77.747 M 250 77.313 C 250 77.485, 251.463 78.948, 253.250 80.563 L 256.500 83.500 253.563 80.250 C 250.825 77.221, 250 76.540, 250 77.313 M 143.500 99 C 145.648 101.200, 147.631 103, 147.906 103 C 148.181 103, 146.648 101.200, 144.500 99 C 142.352 96.800, 140.369 95, 140.094 95 C 139.819 95, 141.352 96.800, 143.500 99 M 216.312 103.748 C 225.009 103.915, 238.959 103.915, 247.312 103.748 C 255.666 103.581, 248.550 103.444, 231.500 103.445 C 214.450 103.445, 207.616 103.582, 216.312 103.748 M 40.436 130.500 C 40.436 144.800, 40.577 150.511, 40.748 143.191 C 40.919 135.871, 40.918 124.171, 40.747 117.191 C 40.575 110.211, 40.435 116.200, 40.436 130.500 M 151.080 109 C 152.538 112.061, 153 112.628, 153 111.358 C 153 110.821, 152.300 109.509, 151.445 108.441 C 149.978 106.611, 149.958 106.643, 151.080 109 M 298.195 110.500 C 298.215 112.150, 298.439 112.704, 298.693 111.731 C 298.947 110.758, 298.930 109.408, 298.656 108.731 C 298.382 108.054, 298.175 108.850, 298.195 110.500 M 164.328 117.500 C 164.333 121.350, 164.513 122.802, 164.730 120.728 C 164.946 118.653, 164.943 115.503, 164.722 113.728 C 164.501 111.952, 164.324 113.650, 164.328 117.500 M 225.250 125.749 C 238.863 125.906, 261.137 125.906, 274.750 125.749 C 288.363 125.592, 277.225 125.463, 250 125.463 C 222.775 125.463, 211.637 125.592, 225.250 125.749 M 117.310 131.500 C 117.315 134.800, 117.502 136.029, 117.725 134.232 C 117.947 132.435, 117.943 129.735, 117.715 128.232 C 117.486 126.729, 117.304 128.200, 117.310 131.500 M 200.195 131.500 C 200.215 133.150, 200.439 133.704, 200.693 132.731 C 200.947 131.758, 200.930 130.408, 200.656 129.731 C 200.382 129.054, 200.175 129.850, 200.195 131.500 M 156.158 143 C 156.158 144.375, 156.385 144.938, 156.662 144.250 C 156.940 143.563, 156.940 142.438, 156.662 141.750 C 156.385 141.063, 156.158 141.625, 156.158 143 M 264 144.750 C 264 145.162, 271.200 145.500, 280 145.500 C 288.800 145.500, 296 145.162, 296 144.750 C 296 144.338, 288.800 144, 280 144 C 271.200 144, 264 144.338, 264 144.750 M 151.144 158.750 C 150.053 161.300, 150.078 161.359, 151.484 159.559 C 152.318 158.491, 153 157.254, 153 156.809 C 153 155.289, 152.322 155.999, 151.144 158.750 M 53.195 157.746 C 59.077 157.922, 68.977 157.923, 75.195 157.747 C 81.413 157.571, 76.600 157.427, 64.500 157.426 C 52.400 157.425, 47.313 157.569, 53.195 157.746 M 88.762 157.707 C 90.006 157.946, 91.806 157.937, 92.762 157.687 C 93.718 157.437, 92.700 157.241, 90.500 157.252 C 88.300 157.263, 87.518 157.468, 88.762 157.707 M 226.750 161.662 C 227.438 161.940, 228.563 161.940, 229.250 161.662 C 229.938 161.385, 229.375 161.158, 228 161.158 C 226.625 161.158, 226.063 161.385, 226.750 161.662 M 145.405 167.250 L 143.500 169.500 145.750 167.595 C 147.864 165.805, 148.455 165, 147.655 165 C 147.465 165, 146.453 166.012, 145.405 167.250 M 183.500 170 C 184.495 171.100, 185.535 172, 185.810 172 C 186.085 172, 185.495 171.100, 184.500 170 C 183.505 168.900, 182.465 168, 182.190 168 C 181.915 168, 182.505 168.900, 183.500 170 M 139.405 173.250 L 137.500 175.500 139.750 173.595 C 141.864 171.805, 142.455 171, 141.655 171 C 141.465 171, 140.453 172.012, 139.405 173.250 M 100.269 187.693 C 101.242 187.947, 102.592 187.930, 103.269 187.656 C 103.946 187.382, 103.150 187.175, 101.500 187.195 C 99.850 187.215, 99.296 187.439, 100.269 187.693 M 222.750 187.662 C 223.438 187.940, 224.563 187.940, 225.250 187.662 C 225.938 187.385, 225.375 187.158, 224 187.158 C 222.625 187.158, 222.063 187.385, 222.750 187.662 M 241.750 187.662 C 242.438 187.940, 243.563 187.940, 244.250 187.662 C 244.938 187.385, 244.375 187.158, 243 187.158 C 241.625 187.158, 241.063 187.385, 241.750 187.662" stroke="none" fill="#1c71fc" fill-rule="evenodd"/><path d="M 0 94.548 L 0 189.095 54.750 188.760 C 103.209 188.462, 110.189 188.224, 115.500 186.680 C 123.594 184.328, 136.278 178.259, 135.553 177.086 C 135.231 176.564, 135.494 175.813, 136.138 175.415 C 136.869 174.963, 137.041 175.124, 136.595 175.845 C 135.482 177.648, 137.593 177.200, 139.128 175.308 C 140.311 173.849, 140.293 173.735, 139 174.480 C 138.063 175.020, 138.214 174.529, 139.405 173.172 C 141.533 170.746, 142.952 170.148, 141 172.500 C 138.781 175.174, 141.544 174.085, 144.313 171.195 C 147.325 168.051, 147.940 166.027, 145.250 168.110 C 143.825 169.214, 143.854 169.050, 145.405 167.233 C 147.480 164.800, 148.564 164.257, 147.367 166.250 C 146.857 167.099, 147.158 167.060, 148.308 166.128 C 150.200 164.593, 150.648 162.482, 148.845 163.595 C 148.124 164.041, 147.963 163.869, 148.415 163.138 C 148.813 162.494, 149.540 162.216, 150.031 162.519 C 151.207 163.246, 154.377 156.928, 156.579 149.470 C 158.915 141.557, 158.904 126.587, 156.556 118.530 C 154.394 111.110, 151.213 104.750, 150.031 105.481 C 149.540 105.784, 148.813 105.506, 148.415 104.862 C 147.963 104.131, 148.124 103.959, 148.845 104.405 C 150.648 105.518, 150.200 103.407, 148.308 101.872 C 146.850 100.690, 146.732 100.707, 147.455 102 C 147.916 102.825, 146.428 101.721, 144.147 99.547 C 139.923 95.520, 139.010 94.287, 141.250 95.633 C 142.099 96.143, 142.060 95.842, 141.128 94.692 C 139.593 92.800, 137.482 92.352, 138.595 94.155 C 139.041 94.876, 138.869 95.037, 138.138 94.585 C 137.494 94.187, 137.230 93.436, 137.552 92.916 C 138.107 92.018, 128.704 87.030, 126.417 87.010 C 125.821 87.004, 125.333 86.345, 125.333 85.544 C 125.333 84.743, 125.699 84.314, 126.146 84.590 C 127.324 85.318, 131.156 83.062, 130.512 82.019 C 130.212 81.535, 130.494 80.813, 131.138 80.415 C 131.869 79.963, 132.041 80.124, 131.595 80.845 C 129.857 83.658, 133.002 81.561, 137.784 76.719 C 142.632 71.810, 144.543 68.928, 141.845 70.595 C 141.124 71.041, 140.963 70.869, 141.415 70.138 C 141.813 69.494, 142.561 69.229, 143.077 69.548 C 144.502 70.428, 147.880 61.657, 149.070 53.984 C 149.808 49.231, 149.814 44.898, 149.091 39.700 C 147.898 31.124, 144.868 22.390, 143.207 22.738 C 142.583 22.869, 142.311 22.352, 142.604 21.589 C 142.897 20.826, 142.586 19.862, 141.914 19.447 C 141.080 18.932, 140.949 19.108, 141.500 20 C 142.024 20.848, 141.918 21.067, 141.198 20.622 C 140.587 20.245, 140.318 19.336, 140.599 18.602 C 141.260 16.880, 132.084 8.754, 130.265 9.452 C 129.512 9.741, 129.157 9.555, 129.476 9.039 C 130.256 7.777, 126.222 5.701, 124.370 6.412 C 123.559 6.723, 123.158 6.554, 123.478 6.036 C 124.199 4.869, 115.666 2.256, 107 0.990 C 103.425 0.467, 77.888 0.031, 50.250 0.020 L 0 0 0 94.548 M 95.762 1.707 C 97.006 1.946, 98.806 1.937, 99.762 1.687 C 100.718 1.437, 99.700 1.241, 97.500 1.252 C 95.300 1.263, 94.518 1.468, 95.762 1.707 M 194.667 9.667 C 194.300 10.033, 194 14.983, 194 20.667 L 194 31 232.500 31 L 271 31 271 20 L 271 9 233.167 9 C 212.358 9, 195.033 9.300, 194.667 9.667 M 195.370 20 C 195.370 25.775, 195.535 28.138, 195.737 25.250 C 195.939 22.363, 195.939 17.638, 195.737 14.750 C 195.535 11.863, 195.370 14.225, 195.370 20 M 136.500 15 C 137.495 16.100, 138.535 17, 138.810 17 C 139.085 17, 138.495 16.100, 137.500 15 C 136.505 13.900, 135.465 13, 135.190 13 C 134.915 13, 135.505 13.900, 136.500 15 M 53.306 31.747 C 59.800 31.922, 70.150 31.921, 76.306 31.746 C 82.463 31.571, 77.150 31.428, 64.500 31.429 C 51.850 31.429, 46.813 31.573, 53.306 31.747 M 40.426 54.500 C 40.427 66.600, 40.571 71.413, 40.747 65.195 C 40.923 58.977, 40.922 49.077, 40.746 43.195 C 40.569 37.313, 40.425 42.400, 40.426 54.500 M 42 54.500 L 42 76 66.250 75.956 C 89.972 75.913, 91.631 75.738, 99.414 72.465 C 100.868 71.854, 101.131 71.979, 100.510 72.985 C 99.961 73.872, 100.077 74.070, 100.862 73.585 C 101.506 73.187, 101.811 72.503, 101.540 72.065 C 101.001 71.193, 103.896 68.225, 105.500 68.006 C 106.050 67.930, 106.357 67.178, 106.183 66.334 C 106.009 65.490, 106.282 65.056, 106.790 65.370 C 107.335 65.707, 107.714 61.246, 107.714 54.500 C 107.714 47.754, 107.335 43.293, 106.790 43.630 C 106.282 43.944, 106.009 43.378, 106.183 42.373 C 106.357 41.367, 105.975 40.535, 105.333 40.522 C 103.861 40.494, 102.500 39.162, 102.500 37.750 C 102.500 37.153, 101.600 36.541, 100.500 36.389 C 99.400 36.236, 96.039 35.412, 93.032 34.556 C 88.807 33.354, 82.387 33, 64.782 33 L 42 33 42 54.500 M 147.158 38 C 147.158 39.375, 147.385 39.938, 147.662 39.250 C 147.940 38.563, 147.940 37.438, 147.662 36.750 C 147.385 36.063, 147.158 36.625, 147.158 38 M 215.720 46.567 C 208.322 48.359, 194.663 54.646, 195.439 55.901 C 195.766 56.430, 195.506 57.187, 194.862 57.585 C 194.088 58.063, 193.960 57.873, 194.485 57.025 C 195.014 56.169, 194.815 55.895, 193.889 56.204 C 193.125 56.458, 192.500 57.154, 192.500 57.750 C 192.500 58.346, 192.090 59.208, 191.590 59.667 C 191.061 60.151, 190.981 59.976, 191.399 59.250 C 193.124 56.252, 189.967 58.479, 184.100 64.399 C 180.612 67.919, 178.044 71.263, 178.395 71.830 C 178.746 72.398, 178.506 73.187, 177.862 73.585 C 177.061 74.080, 176.959 73.865, 177.537 72.905 C 178.258 71.708, 178.133 71.704, 176.692 72.872 C 174.800 74.407, 174.352 76.518, 176.155 75.405 C 176.876 74.959, 177.037 75.131, 176.585 75.862 C 176.187 76.506, 175.430 76.766, 174.901 76.439 C 173.688 75.689, 167.698 88.573, 165.576 96.500 C 163.242 105.220, 162.516 120.058, 163.938 130.015 C 165.339 139.827, 170.943 155.640, 172.872 155.225 C 173.574 155.074, 173.869 155.402, 173.528 155.955 C 172.715 157.270, 174.840 161.217, 175.981 160.512 C 176.465 160.212, 177.187 160.494, 177.585 161.138 C 178.037 161.869, 177.876 162.041, 177.155 161.595 C 175.352 160.482, 175.800 162.593, 177.692 164.128 C 179.151 165.311, 179.262 165.294, 178.500 164 C 177.738 162.706, 177.849 162.689, 179.308 163.872 C 181.140 165.358, 181.628 166.506, 180 165.500 C 177.528 163.972, 179.386 166.962, 183.288 170.792 C 187.259 174.690, 189.950 176.345, 188.500 174 C 187.494 172.372, 188.642 172.860, 190.128 174.692 C 191.311 176.151, 191.294 176.262, 190 175.500 C 188.706 174.738, 188.689 174.849, 189.872 176.308 C 191.407 178.200, 193.518 178.648, 192.405 176.845 C 191.959 176.124, 192.131 175.963, 192.862 176.415 C 193.506 176.813, 193.784 177.541, 193.479 178.033 C 192.790 179.148, 200.449 183.085, 209.022 186.022 C 218.915 189.412, 241.588 190.005, 252.806 187.168 C 262.758 184.652, 270.368 181.404, 269.522 180.035 C 269.171 179.468, 269.506 179.257, 270.283 179.555 C 271.046 179.848, 272.757 179.134, 274.085 177.968 C 275.413 176.802, 275.825 176.193, 275 176.616 C 273.709 177.277, 273.691 177.149, 274.872 175.692 C 276.358 173.860, 277.506 173.372, 276.500 175 C 275.044 177.356, 277.885 175.702, 281.297 172.208 C 284.780 168.641, 286.224 166.125, 284 167.500 C 282.372 168.506, 282.860 167.358, 284.692 165.872 C 286.151 164.689, 286.262 164.706, 285.500 166 C 284.738 167.294, 284.849 167.311, 286.308 166.128 C 288.200 164.593, 288.648 162.482, 286.845 163.595 C 286.124 164.041, 285.963 163.869, 286.415 163.138 C 286.813 162.494, 287.542 162.217, 288.035 162.522 C 288.971 163.100, 294.250 153.378, 296.570 146.803 L 297.911 143 280.991 143 C 265.286 143, 263.996 143.139, 263.035 144.934 C 261.684 147.459, 261.724 148.288, 263.155 147.405 C 263.876 146.959, 264.037 147.131, 263.585 147.862 C 263.187 148.506, 262.512 148.816, 262.084 148.552 C 261.285 148.058, 255.926 153.145, 255.652 154.657 C 255.569 155.120, 255.188 155.396, 254.808 155.269 C 254.427 155.142, 251.809 156.107, 248.990 157.413 C 246.171 158.719, 244.345 159.948, 244.933 160.144 C 247.534 161.010, 227.056 159.918, 223.199 158.985 C 220.833 158.413, 218.401 158.252, 217.794 158.627 C 217.078 159.070, 216.978 158.844, 217.510 157.985 C 218.103 157.025, 217.873 156.835, 216.676 157.294 C 215.722 157.660, 215.125 157.468, 215.262 156.839 C 215.393 156.240, 214.875 155.523, 214.111 155.245 C 213.179 154.907, 212.983 155.163, 213.515 156.025 C 214.040 156.873, 213.912 157.063, 213.138 156.585 C 212.494 156.187, 212.186 155.508, 212.453 155.076 C 212.976 154.229, 208.276 149.402, 207.169 149.650 C 206.801 149.733, 206.602 149.428, 206.726 148.972 C 206.850 148.517, 206.060 146.129, 204.970 143.666 C 203.880 141.202, 202.702 136.444, 202.352 133.093 L 201.715 127 250.990 127 L 300.265 127 299.725 114.250 C 299.360 105.646, 298.496 99.120, 297.069 94.179 C 294.587 85.590, 288.330 72.678, 287.037 73.477 C 286.543 73.783, 285.813 73.506, 285.415 72.862 C 284.963 72.131, 285.124 71.959, 285.845 72.405 C 287.648 73.518, 287.200 71.407, 285.308 69.872 C 284.158 68.940, 283.857 68.901, 284.367 69.750 C 285.462 71.572, 284.471 71.279, 282.872 69.308 C 281.940 68.158, 281.901 67.857, 282.750 68.367 C 285.524 70.034, 283.723 67.152, 279.216 62.712 C 274.835 58.398, 271.983 56.545, 273.500 59 C 274.506 60.628, 273.358 60.140, 271.872 58.308 C 270.689 56.849, 270.706 56.738, 272 57.500 C 273.294 58.262, 273.311 58.151, 272.128 56.692 C 270.593 54.800, 268.482 54.352, 269.595 56.155 C 270.041 56.876, 269.869 57.037, 269.138 56.585 C 268.494 56.187, 268.216 55.459, 268.521 54.967 C 269.369 53.594, 259.693 49.095, 251.244 46.935 C 242.164 44.612, 224.541 44.430, 215.720 46.567 M 224.762 46.707 C 226.006 46.946, 227.806 46.937, 228.762 46.687 C 229.718 46.437, 228.700 46.241, 226.500 46.252 C 224.300 46.263, 223.518 46.468, 224.762 46.707 M 238.250 46.689 C 239.213 46.941, 240.787 46.941, 241.750 46.689 C 242.713 46.438, 241.925 46.232, 240 46.232 C 238.075 46.232, 237.287 46.438, 238.250 46.689 M 147.158 55 C 147.158 56.375, 147.385 56.938, 147.662 56.250 C 147.940 55.563, 147.940 54.438, 147.662 53.750 C 147.385 53.063, 147.158 53.625, 147.158 55 M 184 65.500 C 181.571 67.975, 179.809 70, 180.084 70 C 180.359 70, 182.571 67.975, 185 65.500 C 187.429 63.025, 189.191 61, 188.916 61 C 188.641 61, 186.429 63.025, 184 65.500 M 276 61.313 C 276 61.485, 277.462 62.948, 279.250 64.563 L 282.500 67.500 279.563 64.250 C 276.825 61.221, 276 60.540, 276 61.313 M 136.453 76.250 L 132.500 80.500 136.750 76.547 C 140.702 72.871, 141.460 72, 140.703 72 C 140.540 72, 138.627 73.912, 136.453 76.250 M 229.768 72.725 C 231.565 72.947, 234.265 72.943, 235.768 72.715 C 237.271 72.486, 235.800 72.304, 232.500 72.310 C 229.200 72.315, 227.971 72.502, 229.768 72.725 M 222.500 75.081 C 220.850 75.581, 218.914 75.773, 218.198 75.507 C 217.404 75.212, 217.175 75.475, 217.612 76.181 C 218.089 76.953, 217.777 77.128, 216.676 76.706 C 215.722 76.340, 215.125 76.532, 215.262 77.161 C 215.393 77.760, 214.875 78.477, 214.111 78.755 C 213.145 79.106, 212.975 78.839, 213.553 77.880 C 214.256 76.712, 214.126 76.709, 212.703 77.863 C 211.778 78.613, 211.228 79.560, 211.480 79.968 C 212.065 80.914, 207.546 85.213, 206.776 84.443 C 206.459 84.126, 205.861 84.416, 205.446 85.088 C 204.936 85.912, 205.108 86.051, 205.975 85.515 C 206.837 84.983, 207.093 85.179, 206.755 86.111 C 206.477 86.875, 205.760 87.393, 205.161 87.262 C 204.532 87.125, 204.340 87.722, 204.706 88.676 C 205.055 89.585, 204.926 90.072, 204.420 89.760 C 203.914 89.447, 203.456 90.161, 203.402 91.345 C 203.348 92.530, 202.952 95.419, 202.522 97.765 L 201.740 102.030 232.106 101.765 C 258.257 101.537, 262.489 101.292, 262.583 100 C 262.664 98.894, 262.576 98.861, 262.249 99.874 C 262.005 100.629, 260.798 98.379, 259.566 94.874 C 258.334 91.368, 256.951 87.639, 256.493 86.586 C 255.841 85.087, 255.968 84.851, 257.080 85.496 C 257.922 85.985, 258.161 85.950, 257.667 85.410 C 257.208 84.910, 256.346 84.500, 255.750 84.500 C 255.154 84.500, 254.458 83.875, 254.204 83.111 C 253.887 82.162, 254.178 81.974, 255.120 82.515 C 255.879 82.952, 255.178 81.890, 253.563 80.155 C 250.572 76.943, 249.322 76.094, 250.580 78.130 C 251.004 78.815, 250.732 79.077, 249.889 78.796 C 249.125 78.542, 248.500 77.846, 248.500 77.250 C 248.500 76.654, 248.090 75.792, 247.590 75.333 C 247.061 74.849, 246.981 75.024, 247.399 75.750 C 248.279 77.280, 248.542 77.295, 242.591 75.489 C 237.209 73.857, 227.210 73.654, 222.500 75.081 M 288 77 C 288.589 78.100, 289.295 79, 289.570 79 C 289.845 79, 289.589 78.100, 289 77 C 288.411 75.900, 287.705 75, 287.430 75 C 287.155 75, 287.411 75.900, 288 77 M 53.807 77.747 C 60.576 77.921, 71.376 77.920, 77.807 77.746 C 84.238 77.572, 78.700 77.431, 65.500 77.431 C 52.300 77.432, 47.038 77.574, 53.807 77.747 M 143.996 98.496 C 145.286 99.869, 146.562 100.772, 146.831 100.502 C 147.495 99.838, 143.948 96, 142.671 96 C 142.110 96, 142.707 97.123, 143.996 98.496 M 216.312 103.748 C 225.009 103.915, 238.959 103.915, 247.312 103.748 C 255.666 103.581, 248.550 103.444, 231.500 103.445 C 214.450 103.445, 207.616 103.582, 216.312 103.748 M 40.436 130.500 C 40.436 144.800, 40.577 150.511, 40.748 143.191 C 40.919 135.871, 40.918 124.171, 40.747 117.191 C 40.575 110.211, 40.435 116.200, 40.436 130.500 M 42 130.474 L 42 156.139 70.750 155.618 C 102.222 155.048, 104.076 154.931, 103.240 153.580 C 102.926 153.071, 103.438 152.954, 104.388 153.319 C 105.466 153.732, 105.862 153.585, 105.452 152.922 C 105.093 152.341, 105.407 152.006, 106.150 152.176 C 106.892 152.347, 107.640 152.039, 107.811 151.493 C 108.367 149.715, 112.270 146.049, 113.076 146.547 C 113.508 146.814, 114.187 146.506, 114.585 145.862 C 115.070 145.077, 114.872 144.961, 113.985 145.510 C 112.982 146.129, 112.849 145.862, 113.439 144.414 C 115.632 139.020, 116.176 134.919, 115.549 128.500 C 115.172 124.650, 114.783 120.530, 114.682 119.345 C 114.582 118.161, 114.086 117.447, 113.580 117.760 C 113.055 118.084, 112.970 117.519, 113.383 116.445 C 113.780 115.409, 113.776 114.891, 113.372 115.294 C 112.478 116.189, 106.875 111.011, 107.552 109.916 C 107.816 109.488, 107.506 108.813, 106.862 108.415 C 106.077 107.930, 105.961 108.128, 106.510 109.015 C 107.131 110.021, 106.868 110.146, 105.414 109.535 C 96.319 105.712, 95.556 105.622, 68.750 105.215 L 42 104.808 42 130.474 M 151.080 109 C 152.538 112.061, 153 112.628, 153 111.358 C 153 110.821, 152.300 109.509, 151.445 108.441 C 149.978 106.611, 149.958 106.643, 151.080 109 M 298.195 110.500 C 298.215 112.150, 298.439 112.704, 298.693 111.731 C 298.947 110.758, 298.930 109.408, 298.656 108.731 C 298.382 108.054, 298.175 108.850, 298.195 110.500 M 164.328 117.500 C 164.333 121.350, 164.513 122.802, 164.730 120.728 C 164.946 118.653, 164.943 115.503, 164.722 113.728 C 164.501 111.952, 164.324 113.650, 164.328 117.500 M 225.250 125.749 C 238.863 125.906, 261.137 125.906, 274.750 125.749 C 288.363 125.592, 277.225 125.463, 250 125.463 C 222.775 125.463, 211.637 125.592, 225.250 125.749 M 117.310 131.500 C 117.315 134.800, 117.502 136.029, 117.725 134.232 C 117.947 132.435, 117.943 129.735, 117.715 128.232 C 117.486 126.729, 117.304 128.200, 117.310 131.500 M 200.195 131.500 C 200.215 133.150, 200.439 133.704, 200.693 132.731 C 200.947 131.758, 200.930 130.408, 200.656 129.731 C 200.382 129.054, 200.175 129.850, 200.195 131.500 M 156.158 143 C 156.158 144.375, 156.385 144.938, 156.662 144.250 C 156.940 143.563, 156.940 142.438, 156.662 141.750 C 156.385 141.063, 156.158 141.625, 156.158 143 M 264 144.750 C 264 145.162, 271.200 145.500, 280 145.500 C 288.800 145.500, 296 145.162, 296 144.750 C 296 144.338, 288.800 144, 280 144 C 271.200 144, 264 144.338, 264 144.750 M 151.144 158.750 C 150.053 161.300, 150.078 161.359, 151.484 159.559 C 152.318 158.491, 153 157.254, 153 156.809 C 153 155.289, 152.322 155.999, 151.144 158.750 M 53.195 157.746 C 59.077 157.922, 68.977 157.923, 75.195 157.747 C 81.413 157.571, 76.600 157.427, 64.500 157.426 C 52.400 157.425, 47.313 157.569, 53.195 157.746 M 88.762 157.707 C 90.006 157.946, 91.806 157.937, 92.762 157.687 C 93.718 157.437, 92.700 157.241, 90.500 157.252 C 88.300 157.263, 87.518 157.468, 88.762 157.707 M 226.750 161.662 C 227.438 161.940, 228.563 161.940, 229.250 161.662 C 229.938 161.385, 229.375 161.158, 228 161.158 C 226.625 161.158, 226.063 161.385, 226.750 161.662 M 183.500 170 C 184.495 171.100, 185.535 172, 185.810 172 C 186.085 172, 185.495 171.100, 184.500 170 C 183.505 168.900, 182.465 168, 182.190 168 C 181.915 168, 182.505 168.900, 183.500 170 M 100.269 187.693 C 101.242 187.947, 102.592 187.930, 103.269 187.656 C 103.946 187.382, 103.150 187.175, 101.500 187.195 C 99.850 187.215, 99.296 187.439, 100.269 187.693 M 222.750 187.662 C 223.438 187.940, 224.563 187.940, 225.250 187.662 C 225.938 187.385, 225.375 187.158, 224 187.158 C 222.625 187.158, 222.063 187.385, 222.750 187.662 M 241.750 187.662 C 242.438 187.940, 243.563 187.940, 244.250 187.662 C 244.938 187.385, 244.375 187.158, 243 187.158 C 241.625 187.158, 241.063 187.385, 241.750 187.662" stroke="none" fill="currentColor" fill-rule="evenodd"/></svg>