<svg xmlns="http://www.w3.org/2000/svg" fill="none" viewBox="0 0 512 512" version="1.1"><path d="" stroke="none" fill="currentColor" fill-rule="evenodd"/><path d="M 221.500 45.903 C 216.836 47.098, 210.768 50.535, 207.804 53.658 C 202.698 59.039, 200.688 65.403, 200.197 77.739 C 199.789 87.972, 199.533 89.194, 197.337 91.390 C 196.011 92.717, 193.817 94.080, 192.463 94.420 C 191.109 94.760, 185.280 97.054, 179.509 99.519 C 173.739 101.984, 167.879 104, 166.487 104 C 164.712 104, 161.513 101.716, 155.783 96.358 C 145.387 86.636, 141.120 84.663, 131.623 85.189 C 127.651 85.409, 122.905 86.359, 120.895 87.337 C 118.912 88.301, 108.692 97.507, 98.184 107.795 C 76.409 129.113, 74.497 131.973, 74.649 143 C 74.770 151.781, 76.773 155.839, 85.524 165.025 C 89.583 169.287, 93.215 174.010, 93.595 175.521 C 94.068 177.407, 93.578 179.870, 92.029 183.384 C 90.789 186.198, 88.455 191.875, 86.842 196 C 82.824 206.280, 81.894 207.976, 79.540 209.317 C 78.418 209.956, 72.082 210.723, 65.460 211.021 C 54.706 211.506, 52.925 211.854, 48.784 214.281 C 46.234 215.775, 42.777 218.661, 41.102 220.693 C 35.497 227.492, 34.999 230.654, 35.006 259.428 C 35.009 274.087, 35.458 287.110, 36.033 289.177 C 37.929 296.006, 43 302.200, 49.340 305.432 C 54.549 308.087, 56.458 308.468, 66.988 308.954 C 80.221 309.566, 81.995 310.387, 84.106 316.871 C 84.756 318.867, 87.279 325.182, 89.713 330.904 C 92.867 338.317, 93.955 342.043, 93.498 343.863 C 93.145 345.269, 89.697 349.744, 85.836 353.810 C 74.615 365.622, 71.853 374.237, 75.652 385.572 C 77.061 389.777, 80.173 393.400, 96.857 410.260 C 117.764 431.388, 121.407 434.037, 130.591 434.799 C 139.256 435.518, 144.936 432.952, 154.387 424.049 C 158.901 419.797, 163.800 416.016, 165.275 415.646 C 167.251 415.150, 170.653 416.121, 178.228 419.343 C 183.877 421.746, 190.133 424.244, 192.129 424.894 C 198.578 426.993, 199.429 428.805, 200.093 441.854 C 200.970 459.075, 205.025 466.375, 216.679 471.711 C 221.816 474.063, 222.168 474.084, 250.685 473.794 C 279.106 473.504, 279.566 473.466, 284.354 471.021 C 289.722 468.279, 293.024 464.824, 296.206 458.616 C 297.870 455.371, 298.442 451.930, 298.908 442.353 C 299.570 428.771, 300.198 427.382, 306.710 425.106 C 308.795 424.377, 315.109 421.796, 320.742 419.370 C 328.379 416.080, 331.674 415.131, 333.695 415.638 C 335.186 416.013, 340.130 419.827, 344.682 424.114 C 355.982 434.758, 363.111 436.934, 375.068 433.390 C 380.050 431.913, 382.098 430.195, 399.792 412.654 C 421.775 390.860, 424.385 387.032, 424.361 376.607 C 424.343 368.273, 421.793 363.082, 413.218 353.923 C 409.317 349.755, 405.832 345.178, 405.474 343.751 C 405.006 341.889, 405.929 338.668, 408.745 332.329 C 410.902 327.473, 413.708 320.880, 414.979 317.678 C 416.251 314.475, 418.238 311.258, 419.395 310.527 C 420.710 309.698, 425.822 309.047, 433.006 308.795 C 443.393 308.429, 445.031 308.108, 449.830 305.496 C 452.754 303.904, 456.483 300.915, 458.117 298.853 C 463.788 291.692, 464.147 289.106, 463.808 257.856 C 463.516 231.005, 463.385 229.288, 461.338 225.500 C 460.148 223.300, 457.673 220.088, 455.838 218.362 C 449.851 212.734, 446.585 211.668, 433.450 211.059 C 418.094 210.347, 417.452 209.946, 413.102 198.369 C 411.269 193.491, 407.876 185.817, 405.561 181.316 L 401.353 173.133 427.717 146.816 C 456.378 118.206, 459.319 114.291, 460.899 102.643 C 462.920 87.755, 458.431 77.521, 443.626 63.262 C 428.521 48.713, 418.048 44.356, 404.280 46.892 C 392.307 49.099, 389.610 51.138, 360.789 79.787 L 334.079 106.339 324.289 101.768 C 318.905 99.254, 312.092 96.365, 309.149 95.349 C 300.081 92.215, 299.320 90.886, 298.787 77.236 C 298.494 69.727, 297.765 64.189, 296.762 61.860 C 294.491 56.587, 288.651 50.545, 283.221 47.851 C 278.655 45.586, 277.612 45.503, 251.500 45.321 C 236.650 45.218, 223.150 45.480, 221.500 45.903 M 220.829 64.862 L 217.521 67.817 216.952 80.159 C 216.582 88.166, 215.819 93.786, 214.779 96.162 C 212.079 102.329, 206.075 107.421, 197.891 110.484 C 193.826 112.005, 186.900 114.799, 182.500 116.693 C 166.391 123.625, 158.150 122.208, 146 110.418 C 137.413 102.086, 134.214 100.444, 129.558 101.981 C 125.353 103.368, 92.408 136.468, 91.467 140.250 C 90.321 144.859, 91.755 147.737, 99.004 155.367 C 111.318 168.331, 112.854 176.245, 106.171 192.301 C 104.066 197.360, 101.114 204.730, 99.611 208.678 C 97.581 214.014, 95.725 216.921, 92.379 220.004 C 85.906 225.971, 82.246 227.188, 68.663 227.889 C 57.273 228.477, 56.735 228.606, 54.413 231.306 L 52 234.112 52 259.622 C 52 275.205, 52.401 285.880, 53.030 287.055 C 54.958 290.658, 59.341 292, 69.200 292.006 C 80.433 292.012, 84.639 293.074, 90.132 297.290 C 95.936 301.745, 97.428 304.057, 101.884 315.500 C 104.026 321, 106.787 327.975, 108.021 331 C 112.990 343.190, 110.302 353.071, 98.882 364.599 C 93.053 370.484, 91.757 372.395, 91.303 375.775 L 90.756 379.852 104.777 394.676 C 122.802 413.735, 125.881 416.648, 129.394 417.970 C 133.880 419.659, 137.809 417.762, 145.036 410.416 C 152.808 402.516, 157.439 399.952, 165.207 399.248 C 170.682 398.751, 172.165 399.158, 188.279 405.582 C 202.501 411.251, 206.213 413.160, 209.594 416.541 C 215.112 422.059, 217 427.970, 217 439.728 C 217 449.664, 218.331 454.037, 221.945 455.970 C 223.122 456.601, 233.926 457, 249.798 457 L 275.727 457 278.241 454.486 C 281.279 451.448, 282 448.237, 282 437.741 C 282 427.330, 283.437 422.843, 288.615 417.083 C 293.101 412.094, 293.357 411.959, 313.285 404.065 C 333.565 396.031, 339.821 396.993, 353.782 410.292 C 362.415 418.516, 365.442 419.833, 370.350 417.504 C 372.151 416.650, 381.359 408.170, 390.812 398.661 C 407.638 381.734, 408 381.281, 408 377.133 C 408 373.255, 407.402 372.264, 400.957 365.455 C 397.084 361.362, 392.813 355.648, 391.467 352.757 C 387.421 344.066, 387.976 339.692, 395.509 320.901 C 399.090 311.971, 403.085 303.266, 404.389 301.556 C 405.693 299.847, 409.175 297.134, 412.128 295.527 C 416.981 292.886, 418.682 292.549, 429.862 292.020 C 441.813 291.455, 442.309 291.342, 444.615 288.662 C 446.996 285.894, 447 285.840, 447 260.021 L 447 234.153 444.528 231.215 C 442.105 228.336, 441.820 228.267, 430.278 227.778 C 420.831 227.378, 417.556 226.832, 413.730 225.020 C 407.140 221.899, 401.821 215.490, 398.583 206.769 C 397.098 202.771, 394.215 196.234, 392.175 192.242 L 388.466 184.983 381.206 192.293 L 373.945 199.602 376.888 206.092 C 384.357 222.565, 388.680 246.593, 387.577 265.500 C 383.711 331.749, 337.147 384.198, 272.132 395.536 C 260.989 397.479, 238.793 397.414, 226.926 395.402 C 198.011 390.501, 171.360 376.424, 150.820 355.204 C 130.928 334.653, 118.046 309.128, 113.447 281.150 C 111.224 267.626, 111.904 242.576, 114.835 230 C 126.016 182.030, 158.655 145.232, 204.312 129.122 C 234.476 118.478, 268.501 118.890, 298.349 130.261 L 306.197 133.250 313.099 126.402 C 316.894 122.635, 320 119.266, 320 118.913 C 320 118.243, 313.764 115.355, 300.817 110.030 C 292.812 106.737, 286.191 100.982, 283.804 95.242 C 283.177 93.734, 282.399 86.995, 282.076 80.267 C 281.515 68.604, 281.359 67.904, 278.723 65.267 L 275.958 62.500 250.047 62.203 L 224.137 61.906 220.829 64.862 M 402.563 64.430 C 400.309 65.267, 395.821 68.697, 392.069 72.450 L 385.512 79.006 407.088 100.583 L 428.665 122.159 434.260 117.045 C 444.274 107.893, 447.325 97.722, 442.949 88.076 C 440.788 83.312, 425.721 67.941, 420.634 65.311 C 416.391 63.117, 407.289 62.673, 402.563 64.430 M 294 168.983 L 215.500 246.879 236.975 268.423 L 258.450 289.967 272.975 275.687 C 280.964 267.832, 316.525 232.746, 352 197.717 L 416.500 134.027 395.009 112.514 C 383.189 100.681, 373.289 91.020, 373.009 91.044 C 372.729 91.068, 337.175 126.141, 294 168.983 M 362.688 133.750 C 358.773 137.463, 333.392 162.024, 306.285 188.331 C 258.527 234.680, 257 236.278, 257 239.907 C 257 244.816, 260.246 248, 265.251 248 C 268.685 248, 271.765 245.186, 324.311 194.049 C 354.802 164.376, 380.030 139.365, 380.374 138.468 C 382.473 132.998, 378.589 127, 372.948 127 C 370.438 127, 368.373 128.358, 362.688 133.750 M 233.500 139.075 C 187.571 145.390, 149.609 176.398, 134.151 220.225 C 124.122 248.660, 125.479 280.988, 137.880 309.092 C 147.043 329.855, 165.914 351.561, 184.950 363.233 C 224.104 387.240, 274.162 387.240, 312.967 363.233 C 322.882 357.099, 338.010 343.561, 344.834 334.715 C 363.854 310.062, 373.233 278.097, 370.069 248.712 C 368.930 238.135, 365.394 222.179, 362.878 216.260 L 361.500 213.021 312.310 261.536 L 263.120 310.052 224.557 319.634 C 199.614 325.831, 185.104 328.992, 183.472 328.582 C 179.619 327.615, 176.996 324.428, 177.028 320.750 C 177.043 318.962, 181.279 300.625, 186.441 280 L 195.827 242.500 244.647 194.353 L 293.468 146.207 284.984 143.661 C 280.318 142.261, 273.800 140.620, 270.500 140.014 C 261.989 138.453, 241.758 137.939, 233.500 139.075 M 201.902 286.337 L 196.340 308.673 218.420 303.185 C 230.564 300.167, 240.704 297.525, 240.953 297.313 C 241.436 296.902, 208.884 264, 207.994 264 C 207.703 264, 204.962 274.051, 201.902 286.337" stroke="none" fill="currentColor" fill-rule="evenodd"/></svg>