<svg xmlns="http://www.w3.org/2000/svg" fill="none" viewBox="0 0 480 480" version="1.1"><path d="M 207 1.475 C 192.070 3.680, 181.888 6.096, 166 11.202 C 125.005 24.377, 86.851 49.574, 58.798 82 C 37.933 106.118, 21.360 135.054, 11.913 163.862 C 2.487 192.606, 0.037 208.314, 0.037 240 C 0.037 271.686, 2.487 287.394, 11.913 316.138 C 24.977 355.974, 50.050 393.561, 82 421.202 C 115.354 450.058, 155.083 469.036, 200 477.570 C 211.193 479.697, 256.145 480.684, 268.647 479.078 C 306.057 474.272, 342.564 460.657, 373.187 440.091 C 409.124 415.957, 436.965 384.269, 455.949 345.892 C 466.691 324.177, 476.509 292.012, 478.588 271.719 C 478.970 267.993, 479.669 264.705, 480.141 264.413 C 480.613 264.121, 481 252.632, 481 238.882 C 481 225.084, 480.613 214.121, 480.136 214.416 C 479.660 214.710, 478.961 211.925, 478.582 208.228 C 477.430 196.981, 473.492 180.316, 468.118 163.942 C 455.008 124.001, 429.972 86.458, 398 58.798 C 362.348 27.955, 318.766 8.037, 272.545 1.465 C 259.991 -0.320, 219.110 -0.314, 207 1.475 M 223 30.682 C 208.624 32.171, 185 36.797, 185 38.124 C 185 38.599, 188.955 44.290, 193.789 50.772 C 213.314 76.950, 237.769 115.243, 254.445 145.750 C 258.730 153.587, 262.478 160, 262.776 160 C 264.262 160, 295.177 143.335, 304.655 137.425 C 318.090 129.047, 334.731 117.291, 347.096 107.440 C 359.265 97.747, 375.823 82.803, 375.922 81.425 C 376.032 79.899, 365.253 71.393, 353.354 63.618 C 334.140 51.061, 307.944 40.076, 285.185 35.031 C 266.852 30.968, 239.034 29.022, 223 30.682 M 142.236 54.499 C 102.196 75.831, 70.604 108.611, 51.018 149.146 C 45.139 161.313, 36.859 184.571, 35.543 192.612 L 34.871 196.724 38.789 197.350 C 40.945 197.695, 50.536 198.481, 60.104 199.098 C 98 201.539, 144.287 197.172, 183.952 187.412 C 197.726 184.024, 229.932 173.941, 232.858 172.102 C 234.337 171.172, 229.206 161.238, 213.692 135 C 196.102 105.249, 156.888 48.978, 153.771 49.015 C 153.072 49.024, 147.881 51.491, 142.236 54.499 M 391 109.194 C 361.990 136.446, 322.614 163.626, 284.250 182.882 C 279.712 185.159, 276 187.299, 276 187.637 C 276 187.976, 279.087 195.058, 282.859 203.376 C 286.632 211.694, 291.425 222.671, 293.510 227.770 C 296.414 234.870, 297.675 236.926, 298.901 236.556 C 299.780 236.290, 306.835 235.158, 314.578 234.039 C 344.009 229.787, 380.131 229.600, 409 233.552 C 420.012 235.059, 439.895 238.940, 446.750 240.921 L 450 241.860 450 235.674 C 450 226.900, 447.400 205.781, 444.969 194.815 C 440.134 173.003, 428.607 145.283, 416.975 127.500 C 410.883 118.185, 399.207 102.980, 398.196 103.044 C 397.813 103.069, 394.575 105.836, 391 109.194 M 245 199.939 C 244.175 200.420, 236.075 203.303, 227 206.346 C 195.425 216.934, 166.891 223.309, 131.500 227.683 C 113.479 229.910, 59.044 230.194, 42.687 228.146 C 36.740 227.402, 31.565 227.101, 31.187 227.478 C 29.912 228.750, 29.790 247.172, 30.979 258.878 C 35.240 300.829, 50.658 338.843, 76.455 371 C 80.205 375.675, 83.486 379.725, 83.746 380 C 84.006 380.275, 84.955 379.404, 85.854 378.064 C 91.057 370.318, 104.557 353.080, 112.532 344 C 150.689 300.552, 203.149 265.771, 257.500 247.886 C 263 246.076, 267.629 244.520, 267.786 244.428 C 268.651 243.922, 248.547 199.663, 247.285 199.294 C 246.853 199.168, 245.825 199.458, 245 199.939 M 0.435 240 C 0.435 254.025, 0.575 259.762, 0.747 252.750 C 0.919 245.738, 0.919 234.263, 0.747 227.250 C 0.575 220.238, 0.435 225.975, 0.435 240 M 345 261.052 C 333.117 261.770, 309.991 264.702, 309.067 265.609 C 308.828 265.842, 311.167 273.564, 314.265 282.767 C 320.786 302.144, 328.468 328.646, 333.488 349.093 C 337.195 364.187, 345.430 404.866, 346.579 413.750 C 346.969 416.771, 347.764 419, 348.451 419 C 349.988 419, 362.528 410.381, 371.438 403.201 C 399.382 380.682, 421.150 351.277, 434.511 318 C 438.860 307.167, 445.061 285.614, 446.507 276.301 L 447.159 272.102 441.829 270.574 C 425.217 265.811, 403.347 262.380, 380.881 261.014 C 363.171 259.937, 363.466 259.937, 345 261.052 M 266.267 276.474 C 204.059 297.539, 148.238 339.923, 111.872 393.705 C 109.192 397.668, 107.009 401.268, 107.020 401.705 C 107.049 402.816, 122.082 413.930, 130.500 419.064 C 134.350 421.411, 143.350 426.134, 150.500 429.559 C 199.408 452.985, 254.322 456.273, 306.560 438.902 C 317.299 435.331, 319 434.473, 318.999 432.632 C 318.996 426.245, 309.063 375.304, 303.374 352.500 C 295.535 321.077, 280.309 273.665, 277.925 273.254 C 277.141 273.119, 271.895 274.568, 266.267 276.474" stroke="none" fill="#c3185c" fill-rule="evenodd"/><path d="M 223 30.682 C 208.624 32.171, 185 36.797, 185 38.124 C 185 38.599, 188.955 44.290, 193.789 50.772 C 213.314 76.950, 237.769 115.243, 254.445 145.750 C 258.730 153.587, 262.478 160, 262.776 160 C 264.262 160, 295.177 143.335, 304.655 137.425 C 318.090 129.047, 334.731 117.291, 347.096 107.440 C 359.265 97.747, 375.823 82.803, 375.922 81.425 C 376.032 79.899, 365.253 71.393, 353.354 63.618 C 334.140 51.061, 307.944 40.076, 285.185 35.031 C 266.852 30.968, 239.034 29.022, 223 30.682 M 142.236 54.499 C 102.196 75.831, 70.604 108.611, 51.018 149.146 C 45.139 161.313, 36.859 184.571, 35.543 192.612 L 34.871 196.724 38.789 197.350 C 40.945 197.695, 50.536 198.481, 60.104 199.098 C 98 201.539, 144.287 197.172, 183.952 187.412 C 197.726 184.024, 229.932 173.941, 232.858 172.102 C 234.337 171.172, 229.206 161.238, 213.692 135 C 196.102 105.249, 156.888 48.978, 153.771 49.015 C 153.072 49.024, 147.881 51.491, 142.236 54.499 M 391 109.194 C 361.990 136.446, 322.614 163.626, 284.250 182.882 C 279.712 185.159, 276 187.299, 276 187.637 C 276 187.976, 279.087 195.058, 282.859 203.376 C 286.632 211.694, 291.425 222.671, 293.510 227.770 C 296.414 234.870, 297.675 236.926, 298.901 236.556 C 299.780 236.290, 306.835 235.158, 314.578 234.039 C 344.009 229.787, 380.131 229.600, 409 233.552 C 420.012 235.059, 439.895 238.940, 446.750 240.921 L 450 241.860 450 235.674 C 450 226.900, 447.400 205.781, 444.969 194.815 C 440.134 173.003, 428.607 145.283, 416.975 127.500 C 410.883 118.185, 399.207 102.980, 398.196 103.044 C 397.813 103.069, 394.575 105.836, 391 109.194 M 245 199.939 C 244.175 200.420, 236.075 203.303, 227 206.346 C 195.425 216.934, 166.891 223.309, 131.500 227.683 C 113.479 229.910, 59.044 230.194, 42.687 228.146 C 36.740 227.402, 31.565 227.101, 31.187 227.478 C 29.912 228.750, 29.790 247.172, 30.979 258.878 C 35.240 300.829, 50.658 338.843, 76.455 371 C 80.205 375.675, 83.486 379.725, 83.746 380 C 84.006 380.275, 84.955 379.404, 85.854 378.064 C 91.057 370.318, 104.557 353.080, 112.532 344 C 150.689 300.552, 203.149 265.771, 257.500 247.886 C 263 246.076, 267.629 244.520, 267.786 244.428 C 268.651 243.922, 248.547 199.663, 247.285 199.294 C 246.853 199.168, 245.825 199.458, 245 199.939 M 345 261.052 C 333.117 261.770, 309.991 264.702, 309.067 265.609 C 308.828 265.842, 311.167 273.564, 314.265 282.767 C 320.786 302.144, 328.468 328.646, 333.488 349.093 C 337.195 364.187, 345.430 404.866, 346.579 413.750 C 346.969 416.771, 347.764 419, 348.451 419 C 349.988 419, 362.528 410.381, 371.438 403.201 C 399.382 380.682, 421.150 351.277, 434.511 318 C 438.860 307.167, 445.061 285.614, 446.507 276.301 L 447.159 272.102 441.829 270.574 C 425.217 265.811, 403.347 262.380, 380.881 261.014 C 363.171 259.937, 363.466 259.937, 345 261.052 M 266.267 276.474 C 204.059 297.539, 148.238 339.923, 111.872 393.705 C 109.192 397.668, 107.009 401.268, 107.020 401.705 C 107.049 402.816, 122.082 413.930, 130.500 419.064 C 134.350 421.411, 143.350 426.134, 150.500 429.559 C 199.408 452.985, 254.322 456.273, 306.560 438.902 C 317.299 435.331, 319 434.473, 318.999 432.632 C 318.996 426.245, 309.063 375.304, 303.374 352.500 C 295.535 321.077, 280.309 273.665, 277.925 273.254 C 277.141 273.119, 271.895 274.568, 266.267 276.474" stroke="none" fill="currentColor" fill-rule="evenodd"/></svg>