<svg xmlns="http://www.w3.org/2000/svg" fill="none" viewBox="0 0 2400 4622" version="1.1"><path d="" stroke="none" fill="#405c9c" fill-rule="evenodd"/><path d="M 1713.600 0.993 C 1657.751 3.241, 1605.408 8.095, 1556 15.607 C 1306.154 53.593, 1099.515 161.978, 954.029 331.348 C 810.314 498.656, 728.659 719.875, 712.019 987 C 709.342 1029.964, 709.019 1071.691, 709.009 1374.750 L 709 1692 354.500 1692 L 0 1692 0 2103 L 0 2514 354.500 2514 L 709 2514 709 3568 L 709 4622 1133.500 4622 L 1558 4622 1558 3568 L 1558 2514 1912 2514 C 2158.230 2514, 2266 2513.681, 2266 2512.952 C 2266 2512.375, 2271.613 2468.387, 2278.473 2415.202 C 2312.246 2153.353, 2353.055 1836.744, 2361.506 1771 C 2366.702 1730.575, 2371.178 1696.263, 2371.452 1694.750 L 2371.950 1692 1964.975 1692 L 1558 1692 1558.017 1421.250 C 1558.033 1163.099, 1558.383 1124.646, 1561.024 1091 C 1569.378 984.570, 1598.209 911.215, 1651.908 859.765 C 1704.174 809.687, 1780.081 781.078, 1886 771.534 C 1921.168 768.366, 1950.702 768.005, 2174.750 768.002 L 2400 768 2400 400.175 L 2400 32.350 2380.750 30.165 C 2264.811 17.003, 2089.920 6.363, 1918 2.012 C 1862.467 0.606, 1738.547 -0.011, 1713.600 0.993" stroke="none" fill="currentColor" fill-rule="evenodd"/></svg>