<svg xmlns="http://www.w3.org/2000/svg" width="50" height="50" viewBox="0 0 50 50" version="1.1"><path d="M 11.400 34.765 C 7.409 37.430, 7.326 45.714, 11.262 48.471 C 14.323 50.615, 19.256 50.373, 22.365 47.927 C 24.682 46.105, 25 45.140, 25 39.927 L 25 34 18.750 34.015 C 15.313 34.024, 12.005 34.361, 11.400 34.765" stroke="none" fill="#00cf7f" fill-rule="evenodd"/><path d="M 27.174 19.314 C 24.750 21.895, 24.286 27.488, 26.282 30.087 C 29.823 34.699, 36.442 34.796, 39.988 30.288 C 42.572 27.003, 42.549 22.967, 39.927 19.635 C 37.114 16.058, 30.393 15.889, 27.174 19.314" stroke="none" fill="#00bcff" fill-rule="evenodd"/><path d="M 32.813 16.683 C 33.534 16.972, 34.397 16.936, 34.729 16.604 C 35.061 16.272, 34.471 16.036, 33.417 16.079 C 32.252 16.127, 32.015 16.364, 32.813 16.683 M 10.073 19.635 C 7.432 22.992, 7.432 27.008, 10.073 30.365 C 11.928 32.723, 12.820 33, 18.573 33 L 25 33 25 25 L 25 17 18.573 17 C 12.820 17, 11.928 17.277, 10.073 19.635" stroke="none" fill="#b659ff" fill-rule="evenodd"/><path d="M 10.455 2.455 C 7.825 5.085, 7.347 8.472, 9.071 12.257 C 10.667 15.759, 12.882 16.616, 19.250 16.195 L 25 15.815 25 7.907 L 25 0 18.955 0 C 13.869 0, 12.519 0.390, 10.455 2.455" stroke="none" fill="#ff4d12" fill-rule="evenodd"/><path d="M 16.768 33.725 C 18.565 33.947, 21.265 33.943, 22.768 33.715 C 24.271 33.486, 22.800 33.304, 19.500 33.310 C 16.200 33.315, 14.971 33.502, 16.768 33.725" stroke="none" fill="#05c4b9" fill-rule="evenodd"/><path d="M 25 7.948 L 25 15.895 19.750 16.316 C 16.862 16.547, 19.225 16.705, 25 16.667 C 30.775 16.630, 36.482 16.181, 37.682 15.670 C 42.451 13.640, 43.100 4.584, 38.698 1.501 C 37.393 0.587, 34.297 -0, 30.777 -0 L 25 0 25 7.948" stroke="none" fill="#fb5f3c" fill-rule="evenodd"/></svg>