<?xml version="1.0" standalone="no"?>
<!DOCTYPE svg PUBLIC "-//W3C//DTD SVG 20010904//EN"
 "http://www.w3.org/TR/2001/REC-SVG-20010904/DTD/svg10.dtd">
<svg version="1.0" xmlns="http://www.w3.org/2000/svg"
 width="161.000000pt" height="40.000000pt" viewBox="0 0 161.000000 40.000000"
 preserveAspectRatio="xMidYMid meet">
<metadata>
Created by potrace 1.10, written by Peter Selinger 2001-2011
</metadata>
<g transform="translate(0.000000,40.000000) scale(0.100000,-0.100000)"
fill="#000000" stroke="none">
<path d="M180 340 c0 -27 2 -50 4 -50 2 0 11 -3 20 -6 13 -5 16 3 16 50 0 49
-2 56 -20 56 -17 0 -20 -7 -20 -50z"/>
<path d="M90 357 c0 -21 50 -87 65 -87 21 0 19 16 -7 61 -21 37 -58 54 -58 26z"/>
<path d="M251 328 c-31 -68 -8 -81 34 -21 30 45 32 63 5 63 -13 0 -26 -13 -39
-42z"/>
<path d="M37 303 c-16 -16 -4 -34 35 -52 68 -31 81 -8 21 34 -40 27 -46 29
-56 18z"/>
<path d="M307 285 c-38 -26 -45 -39 -27 -50 17 -11 90 34 90 55 0 27 -18 25
-63 -5z"/>
<path d="M7 206 c-8 -21 2 -26 59 -26 47 0 52 2 47 20 -4 16 -14 20 -53 20
-32 0 -50 -5 -53 -14z"/>
<path d="M290 200 c0 -19 5 -21 53 -18 38 2 52 7 52 18 0 11 -14 16 -52 18
-48 3 -53 1 -53 -18z"/>
<path d="M68 148 c-37 -21 -52 -58 -25 -58 20 0 89 50 84 63 -6 19 -21 17 -59
-5z"/>
<path d="M276 163 c-3 -4 -6 -10 -6 -14 0 -11 71 -59 87 -59 20 0 15 38 -6 50
-36 19 -69 29 -75 23z"/>
<path d="M115 93 c-30 -45 -32 -63 -5 -63 19 0 40 29 54 78 12 37 -20 27 -49
-15z"/>
<path d="M230 119 c0 -25 45 -89 62 -89 25 0 23 19 -7 63 -24 35 -55 50 -55
26z"/>
<path d="M180 61 c0 -33 5 -51 14 -54 21 -8 26 2 26 55 0 41 -3 48 -20 48 -17
0 -20 -7 -20 -49z"/>
</g>
</svg>
