<svg xmlns="http://www.w3.org/2000/svg" width="50" height="50" viewBox="0 0 50 50" version="1.1"><path d="M 10 3.500 C 10 5.944, 10.452 7, 11.500 7 C 12.325 7, 13.007 6.438, 13.015 5.750 C 13.026 4.857, 13.283 4.898, 13.914 5.896 C 15.006 7.620, 18 6.621, 18 4.531 C 18 3.689, 18.450 3, 19 3 C 19.550 3, 20 3.900, 20 5 C 20 6.111, 20.667 7, 21.500 7 C 22.325 7, 23 6.127, 23 5.059 C 23 3.991, 23.450 2.840, 24 2.500 C 24.562 2.153, 25 2.944, 25 4.305 C 25 6.464, 25.434 6.727, 29 6.727 C 32.833 6.727, 33 6.594, 33 3.529 L 33 0.331 23.832 0.129 C 17.263 -0.016, 14.432 0.291, 13.847 1.213 C 13.213 2.213, 13.027 2.221, 13.015 1.250 C 13.007 0.563, 12.325 0, 11.500 0 C 10.452 0, 10 1.056, 10 3.500 M 34 3.500 C 34 6.722, 34.238 7, 37 7 C 39 7, 40 6.500, 40 5.500 C 40 4.675, 39.325 4, 38.500 4 C 37.667 4, 37 3.111, 37 2 C 37 0.889, 36.333 0, 35.500 0 C 34.452 0, 34 1.056, 34 3.500 M 14.009 18.750 C 14.013 19.712, 14.301 22.862, 14.648 25.750 L 15.279 31 22.706 31 L 30.133 31 29.816 33.710 C 29.591 35.646, 28.785 36.591, 27 37.015 C 23.081 37.946, 20 37.008, 20 34.883 C 20 33.546, 19.282 33, 17.525 33 C 15.270 33, 15.106 33.288, 15.682 36.250 C 16.030 38.038, 16.797 39.815, 17.387 40.201 C 19.616 41.658, 25.923 42.098, 29.763 41.064 C 34.101 39.896, 35 37.974, 35 29.875 L 35 26 27 26 C 19.667 26, 19 25.833, 19 24 C 19 22.157, 19.667 22, 27.500 22 C 35.900 22, 36 21.971, 36 19.500 L 36 17 25 17 C 15.187 17, 14.001 17.189, 14.009 18.750" stroke="none" fill="#f7ebe6" fill-rule="evenodd"/><path d="M 7.003 10.750 C 7.010 13.878, 10.020 44.467, 10.436 45.623 C 10.658 46.240, 14.061 47.535, 17.999 48.500 C 24.828 50.173, 25.465 50.173, 31.829 48.493 C 35.498 47.525, 38.807 46.455, 39.182 46.116 C 40.128 45.261, 43.251 11.215, 42.495 9.992 C 42.128 9.397, 34.898 9, 24.441 9 C 8.496 9, 7 9.150, 7.003 10.750 M 14.009 18.750 C 14.013 19.712, 14.301 22.862, 14.648 25.750 L 15.279 31 22.706 31 L 30.133 31 29.816 33.710 C 29.591 35.646, 28.785 36.591, 27 37.015 C 23.081 37.946, 20 37.008, 20 34.883 C 20 33.546, 19.282 33, 17.525 33 C 15.270 33, 15.106 33.288, 15.682 36.250 C 16.030 38.038, 16.797 39.815, 17.387 40.201 C 19.616 41.658, 25.923 42.098, 29.763 41.064 C 34.101 39.896, 35 37.974, 35 29.875 L 35 26 27 26 C 19.667 26, 19 25.833, 19 24 C 19 22.157, 19.667 22, 27.500 22 C 35.900 22, 36 21.971, 36 19.500 L 36 17 25 17 C 15.187 17, 14.001 17.189, 14.009 18.750" stroke="none" fill="#fc4f1c" fill-rule="evenodd"/></svg>