<svg xmlns="http://www.w3.org/2000/svg" fill="none" viewBox="0 0 2048 2048" version="1.1"><path d="M 125 1.567 C 92.930 7.500, 65.639 21.623, 42.999 44 C 23.248 63.522, 11.029 85.069, 3.304 114 L 0.500 124.500 0.500 1024 L 0.500 1923.500 3.395 1934.500 C 10.667 1962.127, 23.299 1984.444, 42.453 2003.502 C 63.241 2024.187, 84.757 2036.372, 114.500 2044.301 L 126.500 2047.500 1018.500 2047.791 C 1677.278 2048.006, 1912.587 2047.786, 1918.481 2046.952 C 1972.862 2039.258, 2020.375 2001.723, 2039.078 1951.683 C 2042.414 1942.755, 2047 1925.358, 2047 1921.628 C 2047 1920.247, 2047.450 1918.840, 2048 1918.500 C 2048.665 1918.089, 2048.995 1618.423, 2048.985 1022.691 C 2048.975 444.381, 2048.626 128.031, 2048 129 C 2047.267 130.135, 2047.027 129.692, 2047.015 127.181 C 2046.978 119.155, 2039.307 94.676, 2033.144 82.916 C 2027.311 71.786, 2025.561 68.951, 2019.866 61.406 C 1994.858 28.272, 1960.183 7.520, 1919 1.038 C 1914.602 0.346, 1624.676 0.042, 1022.500 0.097 C 267.955 0.167, 131.359 0.391, 125 1.567 M 0.498 1024 C 0.498 1516.525, 0.611 1718.012, 0.750 1471.750 C 0.889 1225.487, 0.889 822.512, 0.750 576.250 C 0.611 329.987, 0.498 531.475, 0.498 1024 M 430.497 284.514 C 388.672 289.903, 346.666 313.596, 319.711 347 C 300.877 370.341, 289.722 394.018, 283.308 424.271 C 280.731 436.426, 280.507 439.204, 280.548 458.500 C 280.588 477.512, 280.849 480.674, 283.301 491.901 C 286.380 506.003, 289.470 516.164, 293.973 526.997 C 309.200 563.624, 340.405 596.794, 376.715 614.948 C 402.129 627.655, 425.654 633.112, 455 633.110 C 491.255 633.108, 521.849 624.209, 551 605.188 C 591.519 578.748, 618.299 538.437, 628.187 489 C 631.500 472.433, 631.506 443.618, 628.198 427 C 614.403 357.700, 566.112 305.938, 498.500 287.981 C 480.577 283.221, 451.885 281.758, 430.497 284.514 M 1350 745.167 C 1334.981 746.224, 1311.101 750.008, 1294 754.041 C 1214.873 772.705, 1145.269 820.340, 1104.222 883.920 C 1099.975 890.499, 1095.715 897.290, 1094.756 899.011 C 1093.470 901.319, 1092.420 902.057, 1090.756 901.820 L 1088.500 901.500 1088.243 835.250 L 1087.986 769 943.493 769 L 799 769 799 1256.500 L 799 1744 950 1744 L 1101 1744 1101.014 1489.750 C 1101.022 1334.546, 1101.417 1227.784, 1102.026 1215.694 C 1104.369 1169.251, 1113.045 1129.220, 1127.381 1098.709 C 1145.927 1059.238, 1175.831 1032.476, 1215.224 1020.093 C 1237.228 1013.177, 1255.449 1010.658, 1283 1010.726 C 1316.507 1010.808, 1338.773 1015.515, 1361.500 1027.321 C 1377.516 1035.641, 1394.972 1051.412, 1405.449 1067.027 C 1426.116 1097.832, 1437.572 1142.493, 1440.966 1205.500 C 1441.613 1217.499, 1441.992 1320.204, 1441.995 1484.250 L 1442 1744 1593 1744 L 1744 1744 1743.970 1458.750 C 1743.941 1175.123, 1743.554 1135.546, 1740.498 1104 C 1739.619 1094.925, 1738.481 1082.775, 1737.969 1077 C 1736.117 1056.122, 1730.392 1021.480, 1724.831 997.500 C 1708.023 925.015, 1680.996 871.922, 1640.046 830.947 C 1618.734 809.622, 1598.851 795.517, 1570.500 781.609 C 1553.529 773.284, 1548.213 771.087, 1532 765.702 C 1507.437 757.543, 1484.771 752.478, 1455.500 748.606 C 1423.452 744.368, 1381.029 742.985, 1350 745.167 M 304 1256.500 L 304 1744 455.500 1744 L 607 1744 607 1256.500 L 607 769 455.500 769 L 304 769 304 1256.500" stroke="none" fill="currentColor" fill-rule="evenodd"/><path d="" stroke="none" fill="currentColor" fill-rule="evenodd"/></svg>