<svg xmlns="http://www.w3.org/2000/svg" width="161" height="40" viewBox="0 0 161 40" version="1.1"><path d="M 17.607 1.582 C 17.273 2.452, 16.990 4.589, 16.977 6.332 L 16.954 9.500 14.780 5.750 C 13.585 3.688, 12.006 2, 11.272 2 C 8.806 2, 8.618 5.282, 10.860 9.178 L 13.066 13.011 9.783 11.009 C 6.265 8.864, 3.465 8.438, 2.556 9.910 C 1.551 11.535, 3.022 13.646, 6.296 15.276 L 9.500 16.872 6.332 16.936 C 1.870 17.026, 0 17.931, 0 20 C 0 22.075, 1.921 23, 6.230 23 L 9.296 23 5.898 25.290 C -0.443 29.563, 3.006 33.013, 9.566 28.959 L 13.112 26.768 11.060 30.134 C 8.869 33.727, 8.428 36.529, 9.910 37.444 C 11.535 38.449, 13.646 36.978, 15.276 33.704 L 16.872 30.500 16.936 33.668 C 17.026 38.130, 17.931 40, 20 40 C 22.082 40, 22.991 38.096, 23.023 33.668 L 23.046 30.500 25.220 34.250 C 26.415 36.313, 27.994 38, 28.728 38 C 31.194 38, 31.382 34.718, 29.140 30.822 L 26.934 26.989 30.217 28.991 C 33.735 31.136, 36.535 31.562, 37.444 30.090 C 38.449 28.465, 36.978 26.354, 33.704 24.724 L 30.500 23.128 33.668 23.064 C 38.130 22.974, 40 22.069, 40 20 C 40 17.918, 38.096 17.009, 33.668 16.977 L 30.500 16.954 34.250 14.780 C 36.313 13.585, 38 12.006, 38 11.272 C 38 8.806, 34.718 8.618, 30.822 10.860 L 26.989 13.066 28.991 9.783 C 31.136 6.265, 31.562 3.465, 30.090 2.556 C 28.465 1.551, 26.354 3.022, 24.724 6.296 L 23.128 9.500 23.064 6.332 C 23.029 4.589, 22.727 2.452, 22.393 1.582 C 21.608 -0.464, 18.392 -0.464, 17.607 1.582" stroke="none" fill="#54e4a4" fill-rule="evenodd"/><path d="M 52.641 12.750 C 54.140 15.363, 55.959 18.388, 56.683 19.473 C 57.407 20.557, 58 23.370, 58 25.723 C 58 29.809, 58.134 30, 61 30 C 63.844 30, 64 29.788, 64 25.912 C 64 23.100, 65.092 19.873, 67.500 15.566 C 69.425 12.124, 71 9.014, 71 8.654 C 71 8.294, 69.718 8, 68.152 8 C 65.796 8, 64.992 8.692, 63.500 12 C 62.508 14.200, 61.397 16, 61.032 16 C 60.667 16, 59.357 14.200, 58.120 12 C 56.283 8.732, 55.327 8, 52.894 8 L 49.916 8 52.641 12.750 M 71.455 15.455 C 67.920 18.989, 68.442 26.592, 72.400 29.235 C 74.118 30.382, 78.474 30.126, 79.800 28.800 C 80.733 27.867, 81 27.951, 81 29.178 C 81 31.876, 78.146 33.572, 75.932 32.190 C 71.183 29.224, 67.702 32.277, 72.223 35.443 C 75.319 37.613, 80.241 37.385, 83.365 34.927 C 85.895 32.937, 86 32.461, 86 22.927 C 86 13.005, 85.999 13, 83.500 13 C 82.125 13, 81 13.540, 81 14.200 C 81 15.133, 80.733 15.133, 79.800 14.200 C 77.854 12.254, 74.089 12.820, 71.455 15.455 M 92 14.290 C 88.739 15.933, 87.202 21.658, 88.912 25.787 C 90.102 28.660, 93.551 31, 96.597 31 C 99.211 31, 104 28.012, 104 26.380 C 104 25.080, 103.171 24.926, 99.136 25.481 C 95.213 26.021, 94.155 25.845, 93.667 24.575 C 93.159 23.250, 94.012 23, 99.050 23 L 105.038 23 104.420 20.250 C 103.644 16.798, 99.583 12.995, 96.694 13.015 C 95.487 13.023, 93.375 13.597, 92 14.290 M 107 21.557 C 107 29.850, 107.043 30, 109.450 30 C 111.731 30, 111.921 29.604, 112.200 24.250 C 112.466 19.156, 112.757 18.464, 114.750 18.180 C 116.871 17.879, 117 18.208, 117 23.930 L 117 30 120 30 C 122.921 30, 123 29.872, 123 25.149 C 123 19.133, 121.365 14.223, 119.166 13.639 C 118.250 13.395, 115.138 13.177, 112.250 13.155 L 107 13.113 107 21.557 M 127.635 15.073 C 125.515 16.740, 125 17.990, 125 21.462 C 125 27.581, 127.557 30.455, 133 30.455 C 136.210 30.455, 137.664 29.898, 139.107 28.116 C 140.148 26.831, 141 25.378, 141 24.889 C 141 23.621, 137.310 23.790, 135.119 25.158 C 132.341 26.893, 130 25.519, 130 22.154 C 130 18.095, 132.442 16.185, 134.847 18.362 C 136.861 20.184, 141 20.582, 141 18.955 C 141 18.380, 139.895 16.805, 138.545 15.455 C 135.509 12.418, 131.201 12.267, 127.635 15.073 M 142 13.825 C 142 14.279, 143.125 17.957, 144.500 22 C 147.519 30.875, 147.555 31.622, 145 32.290 C 142.607 32.916, 142.351 35.537, 144.600 36.400 C 145.479 36.737, 147.392 36.444, 148.850 35.747 C 150.902 34.766, 152.207 32.564, 154.634 25.990 C 159.646 12.413, 159.572 13, 156.265 13 C 153.614 13, 153.278 13.440, 151.869 18.750 L 150.344 24.500 148.644 18.750 C 147.169 13.759, 146.618 13, 144.472 13 C 143.112 13, 142 13.371, 142 13.825 M 76.085 17.947 C 75.381 18.383, 74.991 20.162, 75.176 22.097 C 75.559 26.104, 78.289 27.197, 79.988 24.023 C 81.954 20.350, 79.181 16.034, 76.085 17.947 M 94.036 18.457 C 92.927 19.793, 93.185 20, 95.961 20 C 98.081 20, 99.026 19.577, 98.750 18.750 C 98.126 16.873, 95.486 16.709, 94.036 18.457" stroke="none" fill="#fcfcfc" fill-rule="evenodd"/></svg>