<svg xmlns="http://www.w3.org/2000/svg" fill="none" viewBox="0 0 512 512" version="1.1"><path d="" stroke="none" fill="currentColor" fill-rule="evenodd"/><path d="M 159 17.314 C 154.147 18.852, 146.725 26.556, 145.222 31.616 C 144.304 34.708, 144 55.416, 144 114.819 L 144 193.906 139.250 195.990 C 135.627 197.579, 128.492 204.057, 109.184 223.287 C 95.260 237.154, 83.110 249.850, 82.184 251.500 C 80.706 254.132, 80.439 259.526, 80 295.500 C 79.504 336.147, 79.480 336.539, 77.146 341 C 75.634 343.890, 63.197 357.139, 42.390 378.026 L 9.989 410.551 15.768 416.271 L 21.548 421.990 55.725 387.745 C 85.180 358.231, 90.288 352.671, 92.701 347.500 L 95.500 341.500 96 301 C 96.350 272.688, 96.852 259.898, 97.671 258.500 C 98.315 257.400, 109.115 246.304, 121.671 233.841 C 141.083 214.574, 145.061 211.078, 148.250 210.480 C 159.614 208.351, 167.653 216.374, 165.525 227.721 C 164.945 230.812, 161.975 234.322, 147.963 248.480 C 137.661 258.889, 130.496 266.962, 129.549 269.228 C 128.355 272.087, 128 276.860, 128 290.083 L 128 307.230 135.991 315.672 C 145.423 325.636, 149.142 330.830, 153.110 339.583 C 157.912 350.172, 159.205 357.714, 159.952 379.500 C 160.330 390.500, 161.126 400.650, 161.721 402.056 C 163.665 406.648, 168.321 411.241, 173.459 413.633 C 177.928 415.714, 179.971 415.982, 191.462 415.990 L 204.425 416 199.592 420.907 C 196.934 423.605, 192.470 427.059, 189.672 428.582 C 184.963 431.145, 183.466 431.397, 169.542 431.977 C 147.228 432.905, 148.474 432.150, 116.252 464.276 L 90.004 490.446 95.723 496.226 L 101.443 502.005 125.971 477.611 C 141.821 461.849, 152.092 452.413, 155 450.944 C 158.847 449.002, 161.678 448.579, 174.500 448.035 C 195.046 447.162, 197.120 446.173, 214.503 428.961 L 227.591 416 288.546 415.978 C 347.738 415.957, 349.630 415.897, 354 413.916 C 360.048 411.174, 362.813 408.458, 365.623 402.500 C 367.872 397.730, 367.981 396.505, 367.990 375.845 L 368 354.190 372.250 351.683 C 378.392 348.061, 395.567 330.174, 397.953 324.916 C 400.771 318.704, 400.744 307.560, 397.895 301.501 C 395.823 297.092, 389.983 291, 387.828 291 C 387.222 291, 388.839 288.742, 391.420 285.982 C 397.937 279.015, 399.951 274.132, 399.978 265.239 C 399.994 259.908, 399.441 256.788, 397.895 253.501 C 395.823 249.092, 389.983 243, 387.828 243 C 387.222 243, 388.839 240.742, 391.420 237.982 C 397.937 231.015, 399.951 226.132, 399.978 217.239 C 399.994 211.908, 399.441 208.788, 397.895 205.501 C 395.823 201.092, 389.983 195, 387.828 195 C 387.222 195, 388.839 192.742, 391.420 189.982 C 394.002 187.222, 396.978 183.059, 398.035 180.732 C 400.424 175.469, 400.670 163.848, 398.502 158.659 C 394.533 149.161, 385.284 143.606, 374.377 144.170 L 367.996 144.500 367.988 89.500 L 367.980 34.500 365.619 29.429 C 362.913 23.617, 357.600 18.796, 352.078 17.141 C 346.780 15.554, 164.037 15.717, 159 17.314 M 165.020 33.284 C 159.927 35.861, 160.031 34.129, 160.015 116.722 L 160 193.944 164.964 196.080 C 171.181 198.754, 178.068 206.007, 180.583 212.528 C 183.090 219.031, 183.103 228.901, 180.613 235.500 C 179.088 239.541, 175.597 243.666, 162.421 257 C 153.453 266.075, 145.640 274.767, 145.058 276.315 C 144.476 277.863, 144 283.952, 144 289.846 L 144 300.563 150.073 306.531 C 157.176 313.512, 165.755 325.986, 169.307 334.500 C 174.442 346.806, 175.210 351.396, 175.871 373.724 C 176.474 394.059, 176.595 395.044, 178.778 397.224 L 181.056 399.500 264 399.500 L 346.944 399.500 349.222 397.224 C 351.420 395.029, 351.511 394.237, 351.805 374.713 L 352.110 354.477 346.832 350.989 C 339.589 346.202, 336 339.330, 336 330.252 C 336 320.886, 337.667 316.451, 343.572 310.107 L 348.718 304.578 344.994 301.881 C 339.512 297.910, 336 290.213, 336 282.170 C 336 272.888, 337.680 268.437, 343.572 262.107 L 348.718 256.578 344.994 253.881 C 339.512 249.910, 336 242.213, 336 234.170 C 336 224.888, 337.680 220.437, 343.572 214.107 L 348.718 208.578 344.994 205.881 C 339.512 201.910, 336 194.213, 336 186.170 C 336 176.191, 337.596 172.431, 345.253 164.371 L 352.046 157.219 351.773 97.137 L 351.500 37.055 349.224 34.777 C 347.219 32.770, 345.764 32.459, 336.979 32.156 C 329.287 31.891, 326.906 32.120, 326.559 33.156 C 326.312 33.895, 325.139 38.202, 323.952 42.726 C 322.236 49.266, 320.951 51.910, 317.686 55.620 C 310.089 64.250, 312.267 63.956, 256 63.956 C 199.733 63.956, 201.911 64.250, 194.314 55.620 C 191.049 51.910, 189.764 49.266, 188.048 42.726 C 186.861 38.202, 185.704 33.938, 185.477 33.250 C 184.915 31.554, 168.386 31.581, 165.020 33.284 M 203.447 34.750 C 205.683 44.015, 206.164 45.033, 208.987 46.493 C 213.340 48.744, 298.660 48.744, 303.013 46.493 C 305.836 45.033, 306.317 44.015, 308.553 34.750 L 309.217 32 256 32 L 202.783 32 203.447 34.750 M 223.750 148.704 L 192 162.339 192 177.169 L 192 192 196 192 L 200 192 200 220 L 200 248 196 248 L 192 248 192 272 L 192 296 256 296 L 320 296 320 272 L 320 248 316 248 L 312 248 312 220 L 312 192 316 192 L 320 192 320 177.101 L 320 162.201 288.199 148.601 C 270.708 141.120, 256.196 135.016, 255.949 135.035 C 255.702 135.055, 241.213 141.206, 223.750 148.704 M 231.785 163.358 C 218.742 168.936, 208.054 174.063, 208.035 174.750 C 208.007 175.733, 218.248 176, 256 176 C 293.742 176, 303.997 175.733, 303.984 174.750 C 303.973 173.806, 259.977 154.104, 256.215 153.358 C 255.822 153.280, 244.828 157.780, 231.785 163.358 M 373.500 160.986 C 372.400 161.448, 367.225 166.149, 362 171.433 C 352.911 180.624, 352.500 181.229, 352.500 185.415 C 352.500 191.114, 354.996 194, 359.924 194 C 363.171 194, 364.550 192.983, 373.519 183.981 C 383.166 174.297, 383.500 173.814, 383.500 169.509 C 383.500 163.110, 378.529 158.873, 373.500 160.986 M 30.167 173.679 C 19.272 204.391, 15.372 229.561, 16.270 263.369 C 16.818 284.001, 18.637 297.887, 23.072 315.301 C 25.333 324.182, 32.443 345.776, 33.429 346.763 C 34.561 347.895, 48.512 341.516, 48.299 339.964 C 48.189 339.159, 46.465 333.775, 44.469 328 C 28.795 282.651, 28.722 229.817, 44.271 184.500 C 46.158 179, 48.044 173.710, 48.461 172.743 C 49.080 171.309, 48.197 170.535, 43.643 168.521 C 33.153 163.882, 33.720 163.665, 30.167 173.679 M 470 167.906 C 466.101 169.603, 463.580 171.288, 463.701 172.118 C 463.811 172.878, 465.535 178.225, 467.531 184 C 475.568 207.254, 479.206 229.687, 479.206 256 C 479.206 282.313, 475.568 304.746, 467.531 328 C 465.535 333.775, 463.811 339.132, 463.701 339.904 C 463.484 341.420, 477.491 347.842, 478.598 346.735 C 479.998 345.335, 487.956 319.751, 490.335 309 C 494.867 288.527, 495.502 281.848, 495.468 255 C 495.433 227.560, 494.146 216.507, 488.470 194.919 C 484.906 181.367, 478.973 164.994, 477.641 165.038 C 477.014 165.059, 473.575 166.349, 470 167.906 M 68.004 186.718 C 65.060 194.587, 61.418 207.362, 59.612 216.153 C 58.199 223.029, 55.914 239.302, 56.318 239.606 C 56.418 239.682, 60.177 240.054, 64.670 240.433 L 72.841 241.124 73.510 235.312 C 74.724 224.780, 78.067 209.756, 81.692 198.542 C 83.656 192.469, 85.246 187.282, 85.227 187.016 C 85.188 186.480, 72.156 181, 70.920 181 C 70.493 181, 69.181 183.573, 68.004 186.718 M 437.500 182.052 C 436.400 182.556, 433.419 183.836, 430.876 184.895 L 426.252 186.821 429.582 196.378 C 442.470 233.369, 442.477 278.613, 429.599 315.573 C 425.857 326.315, 425.299 325.014, 435.345 328.994 C 442.268 331.736, 441.732 332.216, 445.963 319.500 C 452.967 298.449, 455.963 279.425, 455.963 256 C 455.963 230.285, 452.310 209.348, 443.792 186.250 C 441.827 180.920, 441.070 180.416, 437.500 182.052 M 216 220 L 216 248 224 248 L 232 248 232 220 L 232 192 224 192 L 216 192 216 220 M 248 220 L 248 248 256 248 L 264 248 264 220 L 264 192 256 192 L 248 192 248 220 M 280 220 L 280 248 288 248 L 296 248 296 220 L 296 192 288 192 L 280 192 280 220 M 373.500 208.986 C 372.400 209.448, 367.225 214.149, 362 219.433 C 352.911 228.624, 352.500 229.229, 352.500 233.415 C 352.500 239.114, 354.996 242, 359.924 242 C 363.171 242, 364.550 240.983, 373.519 231.981 C 383.166 222.297, 383.500 221.814, 383.500 217.509 C 383.500 211.110, 378.529 206.873, 373.500 208.986 M 373.500 256.986 C 372.400 257.448, 367.225 262.149, 362 267.433 C 352.911 276.624, 352.500 277.229, 352.500 281.415 C 352.500 287.114, 354.996 290, 359.924 290 C 363.171 290, 364.550 288.983, 373.519 279.981 C 383.166 270.297, 383.500 269.814, 383.500 265.509 C 383.500 259.110, 378.529 254.873, 373.500 256.986 M 208 272 L 208 280 256 280 L 304 280 304 272 L 304 264 256 264 L 208 264 208 272 M 373.500 304.986 C 372.400 305.448, 367.225 310.149, 362 315.433 C 352.911 324.624, 352.500 325.229, 352.500 329.415 C 352.500 335.114, 354.996 338, 359.924 338 C 363.171 338, 364.550 336.983, 373.519 327.981 C 383.166 318.297, 383.500 317.814, 383.500 313.509 C 383.500 307.110, 378.529 302.873, 373.500 304.986" stroke="none" fill="currentColor" fill-rule="evenodd"/></svg>