<svg xmlns="http://www.w3.org/2000/svg" fill="none" viewBox="0 0 512 512" version="1.1"><path d="" stroke="none" fill="currentColor" fill-rule="evenodd"/><path d="M 186.500 10.023 C 116.782 22.574, 63.786 73.978, 48.888 143.500 C 45.513 159.247, 45.098 187.420, 47.989 204.500 C 50.268 217.961, 55.609 235.714, 60.776 247 L 63.751 253.500 54.876 262.615 C 48.279 269.390, 46 272.404, 46 274.355 C 46 276.149, 49.443 281.510, 56.885 291.304 C 67.234 304.924, 67.703 305.748, 66.421 308.064 C 65.679 309.404, 64.328 312.750, 63.418 315.500 C 62.509 318.250, 61.255 320.997, 60.632 321.605 C 60.009 322.213, 52.300 323.704, 43.500 324.918 C 26.862 327.214, 23.561 328.394, 21.955 332.617 C 20.710 335.893, 20.711 378.111, 21.957 381.387 C 23.446 385.303, 27.263 386.587, 44.666 389.028 L 60.833 391.294 61.440 394.397 C 61.774 396.104, 63.116 400.100, 64.423 403.277 L 66.799 409.054 57.064 421.777 C 45.769 436.538, 44.639 438.429, 45.374 441.343 C 46.248 444.810, 81.208 479, 83.879 479 C 87.114 479, 89.068 477.784, 102.882 467.173 C 115.083 457.801, 115.310 457.680, 118.382 458.938 C 120.097 459.641, 123.871 461.134, 126.768 462.256 C 132.794 464.589, 132.177 463.044, 134.971 482.810 C 138.144 505.254, 136.239 504, 167.167 504 C 197.860 504, 195.281 505.810, 198.775 481.818 L 201.339 464.215 205.419 462.996 C 207.664 462.326, 211.170 460.927, 213.210 459.889 C 215.251 458.850, 217.324 458, 217.817 458 C 218.310 458, 224.906 462.725, 232.476 468.500 C 243.112 476.614, 246.944 479, 249.339 479 C 252.022 479, 254.828 476.611, 270.219 461.219 C 285.857 445.581, 288 443.052, 288 440.236 C 288 437.717, 285.743 434.047, 277.419 423.033 L 266.839 409.032 270.139 400.766 C 271.954 396.220, 273.453 392.427, 273.469 392.338 C 273.486 392.249, 280.250 391.226, 288.500 390.064 C 307.746 387.354, 307.733 387.357, 310.586 384.505 L 313 382.091 313 357.768 C 313 337.558, 312.741 333.076, 311.471 331.261 C 309.848 328.945, 304.441 327.015, 299.550 327.006 C 295.810 326.999, 296.702 326.069, 305.242 321.079 L 311.787 317.254 322.548 328.049 L 333.310 338.843 330.655 341.998 C 328.993 343.973, 328 346.350, 328 348.351 C 328 351.238, 332.630 356.162, 375.750 399.136 C 428.009 451.218, 427.448 450.758, 441.679 453.167 C 469.774 457.924, 496.172 431.278, 491.132 403.250 C 488.633 389.351, 488.968 389.759, 437.136 337.750 C 394.162 294.630, 389.238 290, 386.351 290 C 384.350 290, 381.973 290.993, 379.998 292.655 L 376.843 295.310 366.066 284.566 L 355.289 273.822 360.813 264.661 C 375.689 239.995, 383.596 213.312, 384.717 184 C 385.835 154.755, 380.747 130.183, 368.047 103.500 C 345.530 56.188, 302.021 22.224, 249.500 10.958 C 234.562 7.754, 201.803 7.267, 186.500 10.023 M 187.659 26.070 C 135.297 35.288, 91.297 71.263, 71.990 120.644 C 41.639 198.273, 77.689 285.722, 153.337 317.973 C 202.329 338.859, 255.899 333.770, 301.292 303.915 C 306.238 300.662, 311.200 298, 312.318 298 C 313.597 298, 319.850 303.456, 329.187 312.719 L 344.025 327.438 354.001 317.499 L 363.977 307.560 349.489 292.955 C 337.013 280.379, 335 277.914, 335 275.210 C 335 273.026, 336.996 269.022, 341.552 262.069 C 352.711 245.039, 360.123 226.769, 364.706 205 C 367.407 192.173, 367.166 160.028, 364.272 147 C 359.352 124.850, 351.189 105.702, 339.494 88.877 C 331.637 77.573, 310.729 56.918, 300 49.861 C 279.897 36.639, 257.682 28.207, 234.678 25.067 C 222.469 23.402, 200.109 23.878, 187.659 26.070 M 108.270 93.777 C 107.043 93.973, 105.131 95.289, 104.020 96.702 C 102.036 99.224, 102 100.546, 102 171.500 C 102 243.059, 102.019 243.755, 104.073 246.365 L 106.145 249 222.850 249 C 350.946 249, 343.098 249.382, 344.484 243.072 C 345.302 239.349, 342.872 234.466, 339.790 233.641 C 338.531 233.303, 334.238 233.021, 330.250 233.014 L 323 233 323 212.955 C 323 193.005, 322.988 192.897, 320.545 190.455 C 317.298 187.207, 312.702 187.207, 309.455 190.455 C 307.012 192.897, 307 193.005, 307 212.955 L 307 233 289.500 233 L 272 233 272 205.047 C 272 186.402, 271.624 176.269, 270.870 174.615 C 268.717 169.889, 262.093 168.960, 257.750 172.773 C 256.158 174.171, 256 176.959, 256 203.655 L 256 233 238.500 233 L 221 233 221 191.547 C 221 163.297, 220.646 149.318, 219.890 147.657 C 217.669 142.784, 211.618 141.705, 207.306 145.413 L 204.500 147.825 204.219 190.413 L 203.938 233 186.969 233 L 170 233 169.994 183.250 C 169.989 132.096, 169.637 126.947, 166.022 125.012 C 163.044 123.418, 158.437 123.825, 155.861 125.911 L 153.500 127.822 153.224 180.411 L 152.948 233 135.474 233 L 118 233 118 165.934 C 118 124.100, 117.632 98.180, 117.021 97.039 C 115.881 94.909, 111.472 93.265, 108.270 93.777 M 67.260 272.236 L 64.101 275.500 74.051 288.725 C 85.165 303.499, 85.604 304.894, 81.616 312.783 C 80.305 315.377, 77.997 321.100, 76.488 325.500 C 72.521 337.064, 72.224 337.249, 53.132 340.012 L 37 342.346 37 357.094 L 37 371.841 39.750 372.389 C 41.262 372.691, 48.777 373.870, 56.448 375.011 C 64.120 376.151, 70.978 377.567, 71.690 378.158 C 72.402 378.749, 73.940 382.442, 75.107 386.366 C 76.275 390.290, 78.754 396.526, 80.615 400.225 C 82.477 403.924, 84 408.241, 84 409.819 C 84 411.889, 81.356 416.202, 74.500 425.319 C 69.275 432.266, 65 438.307, 65 438.743 C 65 439.179, 69.632 444.152, 75.293 449.794 L 85.587 460.052 98.963 450.526 C 106.320 445.287, 113.326 441, 114.532 441 C 115.737 441, 119.598 442.299, 123.112 443.887 C 126.625 445.475, 133.010 448.017, 137.301 449.535 C 143.197 451.621, 145.434 452.939, 146.466 454.934 C 147.216 456.385, 148.851 464.418, 150.099 472.786 L 152.369 488 167.184 488 C 175.333 488, 182.010 487.663, 182.021 487.250 C 182.089 484.874, 186.940 455.222, 187.487 453.842 C 188.177 452.098, 190.003 451.241, 199 448.435 C 202.025 447.492, 207.579 445.182, 211.342 443.301 C 216.181 440.883, 218.963 440.055, 220.842 440.472 C 222.304 440.796, 229.281 445.615, 236.346 451.179 L 249.192 461.297 259.752 450.737 L 270.312 440.177 260.156 426.514 C 253.739 417.881, 250 411.946, 250 410.393 C 250 409.040, 251.058 405.811, 252.350 403.217 C 253.643 400.623, 255.946 395.125, 257.469 391 C 261.567 379.895, 262.030 379.141, 265.405 378.073 C 267.870 377.293, 294.119 373, 296.423 373 C 296.740 373, 297 366.300, 297 358.111 L 297 343.223 293.750 342.662 C 291.962 342.353, 285.305 341.342, 278.956 340.414 L 267.413 338.727 256.456 341.324 C 243.743 344.337, 234.019 345.982, 228.856 345.992 L 225.213 346 226.200 350.250 C 226.744 352.587, 226.934 357.672, 226.624 361.548 C 223.761 397.309, 190.176 423.423, 155.878 416.556 C 132.716 411.918, 114.387 394.658, 108.471 371.913 C 107.262 367.264, 106.918 362.750, 107.221 355.500 C 107.720 343.528, 110.658 334.260, 116.928 324.871 C 120.238 319.913, 120.803 318.470, 119.681 317.841 C 116.633 316.136, 107.158 308.692, 100.485 302.763 C 91.840 295.080, 82.346 284.515, 76.404 275.964 C 73.934 272.409, 71.576 269.381, 71.166 269.236 C 70.755 269.091, 68.997 270.441, 67.260 272.236 M 367.007 328.482 L 347.514 348.005 390.007 390.507 C 413.459 413.964, 434.068 433.766, 436 434.699 C 440.659 436.949, 450.930 437.557, 456.789 435.930 C 463.337 434.111, 472.111 425.337, 473.930 418.789 C 475.600 412.774, 474.933 402.666, 472.524 397.500 C 471.291 394.855, 456.405 379.181, 428.580 351.230 L 386.500 308.959 367.007 328.482 M 133.359 330.329 C 131.882 332.073, 129.296 336.425, 127.612 340 C 124.783 346.009, 124.550 347.334, 124.526 357.552 C 124.501 368.314, 124.598 368.801, 128.218 376.127 C 132.823 385.443, 140.354 392.852, 149.741 397.299 C 156.077 400.300, 157.192 400.500, 167.552 400.500 C 178.290 400.500, 178.817 400.395, 186.127 396.782 C 203.762 388.066, 213.442 369.771, 210.566 350.594 L 209.877 346 204.817 346 C 189.650 346, 162.006 339.289, 145.608 331.627 L 136.045 327.158 133.359 330.329" stroke="none" fill="currentColor" fill-rule="evenodd"/></svg>