<svg xmlns="http://www.w3.org/2000/svg" width="102" height="110" viewBox="0 0 102 110" version="1.1"><path d="M 62.299 16.908 C 58.344 19.383, 56.068 23.628, 55.323 29.920 L 54.753 34.732 51.190 30.789 C 44.013 22.845, 32.288 19.267, 27.879 23.676 C 24.898 26.657, 25.794 29.276, 33.119 38.997 L 39.226 47.103 38.804 53.738 C 38.549 57.738, 37.897 60.534, 37.161 60.780 C 35.960 61.180, 21 79.434, 21 80.499 C 21 81.100, 54.187 105.970, 55.013 105.989 C 56.052 106.012, 69.388 87.774, 69.509 86.165 C 69.578 85.249, 73.589 78.875, 78.423 72 C 88.844 57.177, 93 49.342, 93 44.518 C 93 39.930, 90.121 33.918, 84.496 26.759 C 76.505 16.589, 68.491 13.032, 62.299 16.908 M 61.749 20.524 C 58.975 23.298, 57 29.686, 57 35.884 C 57 41.216, 55.638 41.769, 53.004 37.506 C 48.507 30.231, 36.643 23.123, 31.250 24.474 C 28.140 25.253, 28.412 27.924, 32.094 32.782 C 33.796 35.027, 36.609 38.738, 38.344 41.029 C 40.938 44.453, 41.500 46.113, 41.500 50.348 C 41.500 53.181, 41.140 57.309, 40.701 59.519 L 39.902 63.539 51.658 72.519 C 58.124 77.459, 64.195 82.070, 65.150 82.767 C 66.694 83.893, 67.692 82.897, 74.167 73.767 C 85.690 57.520, 90.273 49.371, 90.273 45.127 C 90.273 35.700, 75.064 18, 66.965 18 C 65.420 18, 63.197 19.075, 61.749 20.524 M 30 72.166 C 26.975 76.069, 24.709 79.540, 24.965 79.881 C 25.721 80.888, 53.185 101.134, 54.458 101.622 C 55.513 102.027, 64.458 91.575, 65.597 88.607 C 66.017 87.512, 39.874 66.583, 36.727 65.495 C 36.052 65.262, 33.025 68.264, 30 72.166 M 50.750 88.080 C 48.729 89.257, 48.459 92.059, 50.200 93.800 C 53.387 96.987, 58.161 93.037, 56 89 C 54.818 86.791, 53.392 86.541, 50.750 88.080 M 52 91 C 52 91.550, 52.450 92, 53 92 C 53.550 92, 54 91.550, 54 91 C 54 90.450, 53.550 90, 53 90 C 52.450 90, 52 90.450, 52 91" stroke="none" fill="currentColor" fill-rule="evenodd"/><path d="" stroke="none" fill="currentColor" fill-rule="evenodd"/></svg>