<svg xmlns="http://www.w3.org/2000/svg" width="50" height="50" viewBox="0 0 50 50" version="1.1"><path d="M 19.694 2.026 C 18.277 3.140, 16.856 4.879, 16.535 5.890 C 16.099 7.264, 14.957 7.727, 12.008 7.727 C 4.767 7.727, 1.419 11.817, 3.160 18.536 C 3.708 20.651, 4.557 21.571, 5.959 21.571 C 7.281 21.571, 7.633 21.233, 6.986 20.586 C 5.610 19.210, 5.753 13.647, 7.200 12.200 C 7.860 11.540, 9.680 11, 11.245 11 C 13.991 11, 14.066 11.131, 13.389 14.750 C 13.003 16.813, 12.011 18.996, 11.185 19.603 C 9.929 20.525, 10.110 20.788, 12.291 21.205 C 13.881 21.509, 15.091 21.206, 15.389 20.430 C 15.657 19.729, 17.930 17.953, 20.439 16.483 L 25 13.810 29.561 16.483 C 32.070 17.953, 34.373 19.809, 34.680 20.608 C 35.029 21.519, 35.955 21.832, 37.166 21.447 C 38.228 21.110, 39.862 21.417, 40.798 22.129 C 41.734 22.841, 41.310 22.091, 39.855 20.462 C 38.401 18.833, 36.903 16.038, 36.526 14.250 C 35.875 11.162, 35.988 11, 38.798 11 C 42.675 11, 44.235 13.048, 43.841 17.620 C 43.428 22.416, 45.599 23.297, 46.790 18.818 C 47.863 14.785, 46.547 10.363, 43.842 8.915 C 42.771 8.342, 40.118 7.849, 37.947 7.819 C 35.776 7.789, 34 7.402, 34 6.959 C 34 6.516, 32.835 4.769, 31.411 3.077 C 28.290 -0.632, 23.607 -1.052, 19.694 2.026 M 20.557 5.223 C 19.701 6.445, 19 7.745, 19 8.111 C 19 9.194, 25.666 10.122, 28.440 9.426 C 31.522 8.652, 31.649 7.649, 29 5 C 26.346 2.346, 22.500 2.448, 20.557 5.223 M 16.710 13 C 16.104 15.319, 16.789 15.476, 19.279 13.586 C 20.878 12.374, 20.895 12.174, 19.448 11.618 C 17.248 10.774, 17.299 10.748, 16.710 13 M 30.197 11.680 C 29.222 12.071, 29.348 12.546, 30.697 13.569 C 33.211 15.476, 33.898 15.325, 33.290 13 C 32.750 10.936, 32.413 10.792, 30.197 11.680 M 22.558 20.907 C 22.249 21.405, 22.898 21.578, 23.999 21.290 C 26.334 20.679, 26.629 20, 24.559 20 C 23.766 20, 22.866 20.408, 22.558 20.907 M 11 23.500 C 11 23.775, 11.225 24, 11.500 24 C 11.775 24, 12 23.775, 12 23.500 C 12 23.225, 11.775 23, 11.500 23 C 11.225 23, 11 23.225, 11 23.500" stroke="none" fill="#04e6d5" fill-rule="evenodd"/><path d="M 12 18.500 C 12 18.775, 12.225 19, 12.500 19 C 12.775 19, 13 18.775, 13 18.500 C 13 18.225, 12.775 18, 12.500 18 C 12.225 18, 12 18.225, 12 18.500 M 43 19.500 C 43 19.775, 43.225 20, 43.500 20 C 43.775 20, 44 19.775, 44 19.500 C 44 19.225, 43.775 19, 43.500 19 C 43.225 19, 43 19.225, 43 19.500 M 23.250 21.531 C 19.555 23.091, 18.994 25.780, 21.829 28.345 C 24.206 30.496, 26.291 30.440, 28.345 28.171 C 30.475 25.818, 30.444 23.710, 28.250 21.735 C 26.724 20.361, 26.084 20.335, 23.250 21.531 M 34 20.500 C 34 20.775, 34.225 21, 34.500 21 C 34.775 21, 35 20.775, 35 20.500 C 35 20.225, 34.775 20, 34.500 20 C 34.225 20, 34 20.225, 34 20.500 M 5.173 23.914 C 5.209 25.336, 4.563 28.270, 3.736 30.433 C 1.008 37.567, 4.199 42.073, 12.053 42.181 C 14.224 42.211, 16 42.598, 16 43.041 C 16 43.484, 17.165 45.231, 18.589 46.923 C 20.510 49.206, 22.023 50, 24.454 50 C 28.020 50, 32.535 47.042, 33.471 44.091 C 33.913 42.699, 35.073 42.221, 38.112 42.179 C 45.941 42.071, 49 37.617, 46.253 30.325 C 45.460 28.221, 44.741 25.412, 44.656 24.083 C 44.500 21.673, 42 19.749, 42 22.039 C 42 22.980, 41.681 22.980, 40.548 22.040 C 39.749 21.377, 38.174 21.127, 37.048 21.485 C 35.508 21.974, 35 22.986, 35 25.567 C 35 29.345, 32.963 31.934, 27.949 34.526 C 24.883 36.112, 24.658 36.076, 20.146 33.293 C 15.953 30.707, 15.451 29.993, 15 25.964 L 14.500 21.500 9.803 21.414 C 5.379 21.332, 5.110 21.478, 5.173 23.914 M 11.079 24.583 C 11.127 25.748, 11.364 25.985, 11.683 25.188 C 11.972 24.466, 11.936 23.603, 11.604 23.271 C 11.272 22.939, 11.036 23.529, 11.079 24.583 M 23.446 24.087 C 22.416 25.755, 24.733 27.667, 26.113 26.287 C 27.267 25.133, 26.545 23, 25 23 C 24.515 23, 23.816 23.489, 23.446 24.087 M 38 25 C 38 25.733, 38.300 26.033, 38.667 25.667 C 39.033 25.300, 39.033 24.700, 38.667 24.333 C 38.300 23.967, 38 24.267, 38 25 M 7.102 29.809 C 5.653 32.516, 5.700 36.300, 7.200 37.800 C 7.860 38.460, 9.696 39, 11.279 39 C 14 39, 14.122 38.821, 13.483 35.750 C 13.112 33.962, 11.772 31.431, 10.506 30.125 C 8.213 27.759, 8.200 27.757, 7.102 29.809 M 39.332 30.197 C 38.168 31.464, 36.907 33.962, 36.529 35.750 C 35.878 38.823, 35.998 39, 38.721 39 C 40.304 39, 42.140 38.460, 42.800 37.800 C 44.374 36.226, 44.333 31.838, 42.724 29.638 C 41.530 28.005, 41.314 28.041, 39.332 30.197 M 16.725 37.057 C 17.061 38.342, 17.807 38.904, 18.713 38.557 C 19.511 38.250, 20.438 38, 20.773 38 C 21.573 38, 17.698 35.073, 16.844 35.032 C 16.483 35.014, 16.429 35.925, 16.725 37.057 M 30.559 36.532 C 29.491 37.339, 28.892 38, 29.227 38 C 29.562 38, 30.489 38.250, 31.287 38.557 C 32.193 38.904, 32.939 38.342, 33.275 37.057 C 33.906 34.645, 33.227 34.514, 30.559 36.532 M 20.750 40.647 C 18.467 41.299, 18.539 42.539, 21 45 C 23.797 47.797, 27.585 47.563, 29.612 44.469 C 30.525 43.077, 31.081 41.747, 30.848 41.515 C 30.108 40.775, 22.569 40.127, 20.750 40.647" stroke="none" fill="#04bfe3" fill-rule="evenodd"/></svg>