<svg xmlns="http://www.w3.org/2000/svg" fill="none" viewBox="0 0 512 512" version="1.1"><path d="" stroke="none" fill="currentColor" fill-rule="evenodd"/><path d="M 253.147 23.750 C 246.068 71.815, 240.010 155.201, 240.002 204.691 C 240.001 212.827, 239.584 219.139, 239.025 219.484 C 238.489 219.816, 230.501 212.483, 221.275 203.189 C 204.101 185.890, 189.029 172.991, 172.717 161.635 C 160.540 153.157, 144.954 143.712, 144.270 144.397 C 143.318 145.349, 151.822 161.957, 158.359 171.913 C 171.357 191.710, 193.201 215.762, 212 230.976 C 216.125 234.314, 219.500 237.598, 219.500 238.273 C 219.500 239.194, 213.013 239.666, 193.500 240.167 C 131.225 241.765, 73.617 246.095, 27.500 252.644 C 10.203 255.101, 8.163 255.517, 9.083 256.400 C 9.833 257.119, 45.068 261.867, 65 263.935 C 105.036 268.088, 146.407 270.630, 190.791 271.664 C 206.351 272.027, 219.308 272.690, 219.585 273.137 C 219.861 273.584, 212.483 281.499, 203.189 290.725 C 186.055 307.735, 173.773 322.073, 162 338.812 C 153.622 350.723, 143.697 367.030, 144.398 367.731 C 145.323 368.656, 161.552 360.393, 171.619 353.871 C 191.036 341.293, 212.327 322.147, 229.302 302 C 233.704 296.775, 237.799 292.500, 238.403 292.500 C 239.154 292.500, 239.710 300.704, 240.167 318.500 C 241.764 380.741, 246.150 439.159, 252.632 484.500 C 255.105 501.804, 255.521 503.836, 256.398 502.917 C 257.133 502.146, 261.923 466.677, 263.949 447 C 268.109 406.607, 270.633 365.453, 271.664 321.209 C 272.027 305.649, 272.690 292.692, 273.137 292.415 C 273.584 292.139, 281.499 299.512, 290.725 308.799 C 313.231 331.454, 332.387 346.833, 356.354 361.488 C 362.324 365.138, 367.449 367.885, 367.742 367.591 C 368.699 366.634, 360.095 349.917, 353.337 339.602 C 349.708 334.064, 343.458 325.474, 339.449 320.516 C 330.836 309.862, 310.581 289.585, 300 281.023 C 295.875 277.685, 292.500 274.402, 292.500 273.727 C 292.500 272.845, 295.593 272.439, 303.500 272.284 C 321.594 271.928, 369.337 270.012, 387 268.933 C 431.723 266.200, 503 258.253, 503 256 C 503 254.570, 460.389 249.045, 426.500 246.081 C 388.303 242.740, 334.706 240.007, 307.309 240.002 C 299.173 240.001, 292.861 239.584, 292.516 239.025 C 292.184 238.489, 299.512 230.501, 308.799 221.275 C 331.454 198.769, 346.833 179.613, 361.488 155.646 C 365.138 149.676, 367.885 144.551, 367.591 144.258 C 365.662 142.329, 335.754 160.241, 320.500 172.461 C 310.703 180.309, 290.189 200.829, 281.707 211.264 C 277.789 216.084, 274.114 219.872, 273.541 219.682 C 272.922 219.477, 272.412 214.909, 272.284 208.419 C 271.565 172.134, 269.159 123.945, 266.445 91.500 C 263.540 56.767, 257.493 9, 256 9 C 255.626 9, 254.342 15.637, 253.147 23.750" stroke="none" fill="currentColor" fill-rule="evenodd"/></svg>