<svg xmlns="http://www.w3.org/2000/svg" fill="none" viewBox="0 0 300 244" version="1.1"><path d="M 203.750 1.732 C 206.088 1.943, 209.912 1.943, 212.250 1.732 C 214.588 1.522, 212.675 1.349, 208 1.349 C 203.325 1.349, 201.412 1.522, 203.750 1.732 M 183 6 C 182.175 6.533, 181.950 6.969, 182.500 6.969 C 183.050 6.969, 184.175 6.533, 185 6 C 185.825 5.467, 186.050 5.031, 185.500 5.031 C 184.950 5.031, 183.825 5.467, 183 6 M 285 9 C 281.975 10.598, 279.855 11.927, 280.290 11.953 C 280.724 11.979, 282.806 11.119, 284.916 10.043 C 287.026 8.966, 288.977 8.311, 289.253 8.586 C 289.528 8.861, 290.019 8.392, 290.345 7.543 C 290.671 6.694, 290.839 6.021, 290.719 6.047 C 290.598 6.073, 288.025 7.402, 285 9 M 176.441 9.555 C 174.577 11.049, 174.589 11.067, 176.750 10.020 C 177.988 9.420, 179 8.720, 179 8.465 C 179 7.700, 178.481 7.921, 176.441 9.555 M 238.500 9.663 C 241.055 12.083, 247.333 16.177, 245.817 14.435 C 244.891 13.371, 242.641 11.649, 240.817 10.608 C 238.993 9.567, 237.950 9.142, 238.500 9.663 M 167.032 16.631 C 163.687 19.728, 160.005 23.666, 158.851 25.381 C 157.697 27.098, 158.626 26.383, 160.919 23.792 C 163.210 21.203, 167.203 17.268, 169.792 15.048 C 172.381 12.829, 174.188 11.010, 173.807 11.006 C 173.426 11.003, 170.377 13.534, 167.032 16.631 M 20.200 14.200 C 19.540 14.860, 19.014 15.873, 19.030 16.450 C 19.047 17.027, 19.533 16.688, 20.111 15.695 C 20.997 14.171, 21.422 14.093, 22.831 15.195 C 24.326 16.364, 24.357 16.318, 23.128 14.750 C 21.496 12.670, 21.693 12.707, 20.200 14.200 M 274 14 C 273.175 14.533, 272.950 14.969, 273.500 14.969 C 274.050 14.969, 275.175 14.533, 276 14 C 276.825 13.467, 277.050 13.031, 276.500 13.031 C 275.950 13.031, 274.825 13.467, 274 14 M 249.924 18.250 C 251.258 19.762, 253.058 20.964, 253.924 20.921 C 255.274 20.853, 255.284 20.763, 254 20.294 C 253.175 19.992, 251.375 18.790, 250 17.623 L 247.500 15.500 249.924 18.250 M 282.057 20.750 C 280.227 23.363, 279.578 24.743, 280.615 23.817 C 282.427 22.200, 286.499 16, 285.749 16 C 285.549 16, 283.888 18.137, 282.057 20.750 M 31.500 25 C 35.874 29.400, 39.678 33, 39.953 33 C 40.228 33, 36.874 29.400, 32.500 25 C 28.126 20.600, 24.322 17, 24.047 17 C 23.772 17, 27.126 20.600, 31.500 25 M 275.437 29.250 L 272.500 32.500 275.750 29.563 C 277.538 27.948, 279 26.485, 279 26.313 C 279 25.540, 278.175 26.221, 275.437 29.250 M 155 31 C 154.411 32.100, 154.155 33, 154.430 33 C 154.705 33, 155.411 32.100, 156 31 C 156.589 29.900, 156.845 29, 156.570 29 C 156.295 29, 155.589 29.900, 155 31 M 14.195 32.500 C 14.215 34.150, 14.439 34.704, 14.693 33.731 C 14.947 32.758, 14.930 31.408, 14.656 30.731 C 14.382 30.054, 14.175 30.850, 14.195 32.500 M 296.441 31.294 C 296.087 32.217, 295.141 32.653, 294.167 32.343 C 292.742 31.888, 292.718 31.965, 294 32.870 C 295.098 33.644, 295.886 33.542, 296.940 32.488 C 297.733 31.696, 298.081 30.747, 297.714 30.381 C 297.347 30.014, 296.774 30.425, 296.441 31.294 M 268.500 34.625 C 266.702 36.155, 266.334 36.763, 267.582 36.143 C 269.415 35.233, 272.853 31.941, 271.872 32.036 C 271.668 32.056, 270.150 33.221, 268.500 34.625 M 41.904 34.315 C 43.455 36.261, 51 42.419, 51 41.741 C 51 41.505, 48.638 39.343, 45.750 36.934 C 42.862 34.526, 41.132 33.347, 41.904 34.315 M 292.405 37.250 L 290.500 39.500 292.750 37.595 C 294.864 35.805, 295.455 35, 294.655 35 C 294.465 35, 293.453 36.013, 292.405 37.250 M 151.624 37.539 C 150.659 40.053, 150.943 40.702, 152.122 38.675 C 152.706 37.671, 152.973 36.639, 152.715 36.382 C 152.458 36.124, 151.966 36.645, 151.624 37.539 M 13.286 42.500 C 13.294 45.250, 13.488 46.256, 13.718 44.736 C 13.947 43.216, 13.941 40.966, 13.704 39.736 C 13.467 38.506, 13.279 39.750, 13.286 42.500 M 271.750 38.662 C 272.438 38.940, 273.563 38.940, 274.250 38.662 C 274.938 38.385, 274.375 38.158, 273 38.158 C 271.625 38.158, 271.063 38.385, 271.750 38.662 M 283 47.500 C 278.903 51.625, 275.775 55, 276.050 55 C 276.325 55, 279.903 51.625, 284 47.500 C 288.097 43.375, 291.225 40, 290.950 40 C 290.675 40, 287.097 43.375, 283 47.500 M 62 49.430 C 62 49.705, 62.900 50.411, 64 51 C 65.100 51.589, 66 51.845, 66 51.570 C 66 51.295, 65.100 50.589, 64 50 C 62.900 49.411, 62 49.155, 62 49.430 M 14.158 52 C 14.158 53.375, 14.385 53.938, 14.662 53.250 C 14.940 52.563, 14.940 51.438, 14.662 50.750 C 14.385 50.063, 14.158 50.625, 14.158 52 M 67 52.430 C 67 52.705, 67.900 53.411, 69 54 C 70.100 54.589, 71 54.845, 71 54.570 C 71 54.295, 70.100 53.589, 69 53 C 67.900 52.411, 67 52.155, 67 52.430 M 147.360 62 C 147.360 67.225, 147.529 69.362, 147.735 66.750 C 147.941 64.138, 147.941 59.862, 147.735 57.250 C 147.529 54.638, 147.360 56.775, 147.360 62 M 271.500 57.625 C 269.702 59.155, 269.334 59.763, 270.582 59.143 C 272.415 58.233, 275.853 54.941, 274.872 55.036 C 274.668 55.056, 273.150 56.221, 271.500 57.625 M 77.441 58.445 C 78.509 59.300, 79.821 60, 80.358 60 C 81.628 60, 81.061 59.538, 78 58.080 C 75.643 56.958, 75.611 56.978, 77.441 58.445 M 268.349 69 C 268.349 73.675, 268.522 75.587, 268.732 73.250 C 268.943 70.912, 268.943 67.087, 268.732 64.750 C 268.522 62.412, 268.349 64.325, 268.349 69 M 87 63 C 87.825 63.533, 88.950 63.969, 89.500 63.969 C 90.050 63.969, 89.825 63.533, 89 63 C 88.175 62.467, 87.050 62.031, 86.500 62.031 C 85.950 62.031, 86.175 62.467, 87 63 M 125.750 74.662 C 126.438 74.940, 127.563 74.940, 128.250 74.662 C 128.938 74.385, 128.375 74.158, 127 74.158 C 125.625 74.158, 125.063 74.385, 125.750 74.662 M 132.269 75.693 C 133.242 75.947, 134.592 75.930, 135.269 75.656 C 135.946 75.382, 135.150 75.175, 133.500 75.195 C 131.850 75.215, 131.296 75.439, 132.269 75.693 M 140.750 76.706 C 141.988 76.944, 144.012 76.944, 145.250 76.706 C 146.488 76.467, 145.475 76.272, 143 76.272 C 140.525 76.272, 139.512 76.467, 140.750 76.706 M 30.958 85.250 C 33.410 87.862, 35.548 90, 35.708 90 C 36.459 90, 35.665 89.102, 31.250 84.958 L 26.500 80.500 30.958 85.250 M 267.252 85.500 C 267.263 87.700, 267.468 88.482, 267.707 87.238 C 267.946 85.994, 267.937 84.194, 267.687 83.238 C 267.437 82.282, 267.241 83.300, 267.252 85.500 M 13.168 91.715 C 13.324 96.138, 13.366 96.213, 13.731 92.703 C 14.083 89.326, 14.368 88.980, 16.313 89.577 C 18.868 90.362, 18.432 89.756, 15.250 88.100 C 13.058 86.960, 13.004 87.054, 13.168 91.715 M 20 91 C 20.825 91.533, 22.175 91.945, 23 91.914 C 23.989 91.878, 23.819 91.567, 22.500 91 C 19.751 89.819, 18.172 89.819, 20 91 M 266.195 93.500 C 266.215 95.150, 266.439 95.704, 266.693 94.731 C 266.947 93.758, 266.930 92.408, 266.656 91.731 C 266.382 91.054, 266.175 91.850, 266.195 93.500 M 28.750 93.662 C 29.438 93.940, 30.563 93.940, 31.250 93.662 C 31.938 93.385, 31.375 93.158, 30 93.158 C 28.625 93.158, 28.063 93.385, 28.750 93.662 M 35.269 94.693 C 36.242 94.947, 37.592 94.930, 38.269 94.656 C 38.946 94.382, 38.150 94.175, 36.500 94.195 C 34.850 94.215, 34.296 94.439, 35.269 94.693 M 18 111.383 C 18 112.456, 20.975 118, 21.551 118 C 21.826 118, 21.308 116.537, 20.399 114.750 C 18.542 111.100, 18 110.339, 18 111.383 M 30 129.500 C 31.866 131.425, 33.617 133, 33.892 133 C 34.167 133, 32.866 131.425, 31 129.500 C 29.134 127.575, 27.383 126, 27.108 126 C 26.833 126, 28.134 127.575, 30 129.500 M 255.624 132.539 C 254.659 135.053, 254.943 135.702, 256.122 133.675 C 256.706 132.671, 256.973 131.639, 256.715 131.382 C 256.458 131.124, 255.966 131.645, 255.624 132.539 M 253.162 138.543 C 251.487 142.220, 251.807 143.005, 253.618 139.662 C 254.464 138.100, 254.969 136.636, 254.741 136.407 C 254.512 136.179, 253.802 137.140, 253.162 138.543 M 42 138.493 C 42 139.170, 50.123 143.211, 50.575 142.758 C 50.785 142.549, 48.941 141.398, 46.478 140.202 C 44.015 139.005, 42 138.236, 42 138.493 M 35 149.906 C 35 150.405, 35.900 150.577, 37 150.290 C 38.100 150.002, 39 149.594, 39 149.383 C 39 149.173, 38.100 149, 37 149 C 35.900 149, 35 149.408, 35 149.906 M 52.750 149.662 C 53.438 149.940, 54.563 149.940, 55.250 149.662 C 55.938 149.385, 55.375 149.158, 54 149.158 C 52.625 149.158, 52.063 149.385, 52.750 149.662 M 36 152.373 C 36 153.453, 39.972 161, 40.541 161 C 40.816 161, 40.076 159.088, 38.897 156.750 C 36.579 152.153, 36 151.278, 36 152.373 M 244 157 C 243.411 158.100, 243.155 159, 243.430 159 C 243.705 159, 244.411 158.100, 245 157 C 245.589 155.900, 245.845 155, 245.570 155 C 245.295 155, 244.589 155.900, 244 157 M 241 162 C 240.411 163.100, 240.155 164, 240.430 164 C 240.705 164, 241.411 163.100, 242 162 C 242.589 160.900, 242.845 160, 242.570 160 C 242.295 160, 241.589 160.900, 241 162 M 45.878 168.846 C 47.554 170.962, 49.717 173.324, 50.685 174.096 C 51.653 174.868, 50.474 173.137, 48.066 170.250 C 43.015 164.194, 41.345 163.123, 45.878 168.846 M 230.504 177.250 C 227.855 180.688, 226.583 182.710, 227.678 181.746 C 229.748 179.920, 236.426 171, 235.723 171 C 235.502 171, 233.153 173.813, 230.504 177.250 M 54.183 176.565 C 55.109 177.629, 57.359 179.351, 59.183 180.392 C 63.098 182.625, 62.066 181.517, 56.500 177.510 C 54.173 175.835, 53.204 175.440, 54.183 176.565 M 215.481 194.250 L 205.500 204.500 215.750 194.519 C 225.270 185.248, 226.455 184, 225.731 184 C 225.583 184, 220.971 188.613, 215.481 194.250 M 78.750 188.662 C 79.438 188.940, 80.563 188.940, 81.250 188.662 C 81.938 188.385, 81.375 188.158, 80 188.158 C 78.625 188.158, 78.063 188.385, 78.750 188.662 M 85.762 189.707 C 87.006 189.946, 88.806 189.937, 89.762 189.687 C 90.718 189.437, 89.700 189.241, 87.500 189.252 C 85.300 189.263, 84.518 189.468, 85.762 189.707 M 87.861 194.059 L 85.500 196.119 88.250 194.444 C 89.763 193.523, 91 192.597, 91 192.385 C 91 191.604, 90.165 192.050, 87.861 194.059 M 74.441 202.555 C 72.577 204.049, 72.589 204.067, 74.750 203.020 C 75.987 202.420, 77 201.720, 77 201.465 C 77 200.700, 76.481 200.921, 74.441 202.555 M 202.405 206.250 L 200.500 208.500 202.750 206.595 C 204.864 204.805, 205.455 204, 204.655 204 C 204.465 204, 203.453 205.012, 202.405 206.250 M 64 207.500 C 62.625 208.286, 61.950 208.929, 62.500 208.929 C 63.050 208.929, 64.625 208.286, 66 207.500 C 67.375 206.714, 68.050 206.071, 67.500 206.071 C 66.950 206.071, 65.375 206.714, 64 207.500 M 58 210 C 57.175 210.533, 56.950 210.969, 57.500 210.969 C 58.050 210.969, 59.175 210.533, 60 210 C 60.825 209.467, 61.050 209.031, 60.500 209.031 C 59.950 209.031, 58.825 209.467, 58 210 M 192.203 213.429 C 187.558 216.713, 186.905 217.652, 190.827 215.406 C 192.657 214.357, 194.624 212.938, 195.199 212.250 C 196.677 210.483, 195.984 210.756, 192.203 213.429 M 38.750 215.662 C 39.438 215.940, 40.563 215.940, 41.250 215.662 C 41.938 215.385, 41.375 215.158, 40 215.158 C 38.625 215.158, 38.063 215.385, 38.750 215.662 M 33.750 216.662 C 34.438 216.940, 35.563 216.940, 36.250 216.662 C 36.938 216.385, 36.375 216.158, 35 216.158 C 33.625 216.158, 33.063 216.385, 33.750 216.662 M 3 217.393 C 3 218.342, 5.993 218.820, 6.527 217.956 C 6.852 217.430, 6.191 217, 5.059 217 C 3.927 217, 3 217.177, 3 217.393 M 24.762 217.707 C 26.006 217.946, 27.806 217.937, 28.762 217.687 C 29.718 217.437, 28.700 217.241, 26.500 217.252 C 24.300 217.263, 23.518 217.468, 24.762 217.707 M 7 219.430 C 7 219.705, 7.900 220.411, 9 221 C 10.100 221.589, 11 221.845, 11 221.570 C 11 221.295, 10.100 220.589, 9 220 C 7.900 219.411, 7 219.155, 7 219.430 M 180.750 220.572 C 177.012 222.600, 177.239 223.445, 181 221.500 C 182.650 220.647, 184 219.735, 184 219.474 C 184 218.831, 183.893 218.867, 180.750 220.572 M 23 228 C 23.825 228.533, 24.950 228.969, 25.500 228.969 C 26.050 228.969, 25.825 228.533, 25 228 C 24.175 227.467, 23.050 227.031, 22.500 227.031 C 21.950 227.031, 22.175 227.467, 23 228 M 166 228 C 165.175 228.533, 164.950 228.969, 165.500 228.969 C 166.050 228.969, 167.175 228.533, 168 228 C 168.825 227.467, 169.050 227.031, 168.500 227.031 C 167.950 227.031, 166.825 227.467, 166 228 M 128.750 239.662 C 129.438 239.940, 130.563 239.940, 131.250 239.662 C 131.938 239.385, 131.375 239.158, 130 239.158 C 128.625 239.158, 128.063 239.385, 128.750 239.662 M 64.750 240.662 C 65.438 240.940, 66.563 240.940, 67.250 240.662 C 67.938 240.385, 67.375 240.158, 66 240.158 C 64.625 240.158, 64.063 240.385, 64.750 240.662 M 122.750 240.662 C 123.438 240.940, 124.563 240.940, 125.250 240.662 C 125.938 240.385, 125.375 240.158, 124 240.158 C 122.625 240.158, 122.063 240.385, 122.750 240.662 M 71.250 241.689 C 72.213 241.941, 73.787 241.941, 74.750 241.689 C 75.713 241.438, 74.925 241.232, 73 241.232 C 71.075 241.232, 70.287 241.438, 71.250 241.689 M 115.250 241.689 C 116.213 241.941, 117.787 241.941, 118.750 241.689 C 119.713 241.438, 118.925 241.232, 117 241.232 C 115.075 241.232, 114.287 241.438, 115.250 241.689 M 82.250 242.716 C 83.763 242.945, 86.237 242.945, 87.750 242.716 C 89.263 242.487, 88.025 242.300, 85 242.300 C 81.975 242.300, 80.737 242.487, 82.250 242.716 M 101.768 242.725 C 103.565 242.947, 106.265 242.943, 107.768 242.715 C 109.271 242.486, 107.800 242.304, 104.500 242.310 C 101.200 242.315, 99.971 242.502, 101.768 242.725" stroke="none" fill="#64b4ec" fill-rule="evenodd"/><path d="M 192.788 1.551 C 186.686 3.031, 172.870 9.531, 173.213 10.761 C 173.482 11.726, 157.726 27.482, 156.761 27.213 C 155.410 26.837, 148.993 40.909, 147.392 47.757 C 146.311 52.380, 145.932 57.759, 146.187 64.868 L 146.559 75.236 139.030 74.570 C 122.102 73.071, 100.398 67.183, 83.672 59.551 C 79.366 57.586, 75.359 56.278, 74.767 56.644 C 74.160 57.019, 73.978 56.844, 74.350 56.243 C 74.732 55.625, 72.169 53.563, 68.254 51.338 C 59.831 46.552, 59.543 46.431, 60.521 48.120 C 60.993 48.935, 60.948 49.159, 60.410 48.667 C 59.910 48.208, 59.500 47.346, 59.500 46.750 C 59.500 46.154, 58.875 45.458, 58.111 45.204 C 57.161 44.887, 56.974 45.177, 57.521 46.120 C 57.993 46.935, 57.948 47.159, 57.410 46.667 C 56.910 46.208, 56.500 45.346, 56.500 44.750 C 56.500 44.154, 55.875 43.458, 55.111 43.204 C 54.150 42.883, 53.978 43.166, 54.553 44.120 C 55.258 45.291, 55.128 45.292, 53.692 44.128 C 51.709 42.519, 51.459 41.607, 53.250 42.516 C 53.938 42.865, 52.708 41.655, 50.518 39.826 C 39.770 30.848, 30.062 21.674, 26 16.656 C 23.525 13.599, 21.204 11.075, 20.843 11.049 C 20.482 11.022, 18.819 14.285, 17.147 18.301 C 14.008 25.841, 12.021 35.312, 12.008 42.792 C 11.989 53.066, 18.458 74.071, 21.132 72.419 C 21.862 71.967, 22.043 72.122, 21.608 72.825 C 20.757 74.203, 22.763 78.265, 23.937 77.539 C 24.397 77.255, 25.387 77.805, 26.137 78.761 C 27.370 80.335, 27.334 80.370, 25.750 79.128 C 21.696 75.948, 24.469 80.023, 30.277 85.779 C 36.025 91.476, 39.180 93.719, 37.405 90.845 C 36.945 90.101, 37.132 89.964, 37.933 90.458 C 38.784 90.984, 38.851 91.549, 38.146 92.254 C 36.779 93.621, 26.405 91.580, 18.578 88.403 C 15.320 87.081, 12.508 86, 12.328 86 C 11.393 86, 12.199 96.352, 13.539 101.540 C 15.517 109.205, 20.681 120.315, 21.912 119.555 C 22.434 119.232, 23.187 119.494, 23.585 120.138 C 24.037 120.869, 23.876 121.041, 23.155 120.595 C 21.352 119.482, 21.800 121.593, 23.692 123.128 C 25.151 124.311, 25.262 124.294, 24.500 123 C 23.738 121.706, 23.849 121.689, 25.308 122.872 C 27.140 124.358, 27.628 125.506, 26 124.500 C 23.328 122.849, 25.554 126.115, 30.281 130.784 C 35.397 135.836, 38.620 137.817, 35.921 134.250 C 34.778 132.739, 34.795 132.678, 36.048 133.800 C 36.847 134.515, 37.500 135.603, 37.500 136.217 C 37.500 136.831, 38.125 137.542, 38.889 137.796 C 39.815 138.105, 40.014 137.831, 39.485 136.975 C 38.960 136.127, 39.088 135.937, 39.862 136.415 C 40.506 136.813, 40.771 137.561, 40.452 138.077 C 39.870 139.020, 53.323 146, 55.722 146 C 56.425 146, 57 146.386, 57 146.858 C 57 148.141, 45.842 149.057, 38.969 148.339 L 32.939 147.709 33.921 150.292 C 36.127 156.093, 40.128 163.039, 40.967 162.521 C 41.459 162.216, 42.187 162.494, 42.585 163.138 C 43.037 163.869, 42.876 164.041, 42.155 163.595 C 41.520 163.203, 41 163.368, 41 163.961 C 41 166.268, 55.763 179.829, 62.101 183.344 C 68.661 186.982, 81.780 191, 87.101 191 C 90.990 191, 91.479 192.479, 88.241 194.450 L 85.500 196.119 87.861 194.059 C 90.676 191.604, 89.912 191.356, 86.473 193.609 C 85.122 194.495, 84.246 195.588, 84.525 196.040 C 84.804 196.492, 84.506 197.187, 83.862 197.585 C 83.088 198.063, 82.960 197.873, 83.485 197.025 C 84.014 196.169, 83.815 195.895, 82.889 196.204 C 82.125 196.458, 81.500 197.154, 81.500 197.750 C 81.500 198.346, 81.090 199.208, 80.590 199.667 C 80.061 200.151, 79.981 199.976, 80.399 199.250 C 81.462 197.402, 80.858 197.620, 72.674 202.034 C 54.862 211.642, 36.051 216.217, 14.270 216.240 C 6.443 216.248, 0.273 216.632, 0.558 217.094 C 0.844 217.556, 2.480 217.654, 4.194 217.311 C 6.354 216.879, 7.100 217.029, 6.623 217.800 C 6.245 218.412, 5.275 218.659, 4.468 218.349 C 3.661 218.040, 3 218.050, 3 218.373 C 3 219.448, 11.053 223.085, 12.059 222.463 C 12.604 222.127, 12.926 222.412, 12.775 223.097 C 12.433 224.645, 28.080 231.740, 41.127 235.954 C 56.839 241.028, 68.795 243.014, 87.640 243.679 C 108.607 244.418, 122.710 243.034, 140.500 238.491 C 155.006 234.787, 176.658 226.065, 176.225 224.100 C 176.074 223.413, 176.396 223.127, 176.941 223.463 C 178.264 224.281, 186.223 220.169, 185.519 219.031 C 185.216 218.540, 185.494 217.813, 186.138 217.415 C 186.869 216.963, 187.041 217.124, 186.595 217.845 C 186.203 218.480, 186.158 219, 186.496 219 C 187.392 219, 199 211.020, 199 210.404 C 199 210.117, 198.550 210.160, 198 210.500 C 196.372 211.506, 196.860 210.358, 198.692 208.872 C 199.842 207.940, 200.143 207.901, 199.633 208.750 C 198.510 210.619, 200.546 210.258, 202.128 208.308 C 203.311 206.849, 203.293 206.735, 202 207.480 C 201.063 208.020, 201.214 207.529, 202.405 206.172 C 204.533 203.746, 205.952 203.148, 204 205.500 C 201.091 209.006, 204.801 206.528, 211.677 200.374 C 219.170 193.668, 236.009 174.340, 235.962 172.500 C 235.948 171.950, 234.938 172.849, 233.718 174.499 C 232.498 176.148, 230.230 178.848, 228.678 180.499 C 227.126 182.149, 227.912 180.800, 230.426 177.500 C 232.940 174.200, 235.522 171.500, 236.165 171.500 C 236.808 171.500, 237.542 170.875, 237.796 170.111 C 238.113 169.161, 237.823 168.974, 236.880 169.521 C 236.065 169.993, 235.841 169.948, 236.333 169.410 C 236.792 168.910, 237.654 168.500, 238.250 168.500 C 238.846 168.500, 239.542 167.875, 239.796 167.111 C 240.105 166.185, 239.831 165.986, 238.975 166.515 C 238.127 167.040, 237.937 166.912, 238.415 166.138 C 238.813 165.494, 239.521 165.204, 239.990 165.494 C 241.211 166.248, 247.277 155.257, 246.412 153.858 C 245.957 153.122, 246.126 152.960, 246.869 153.419 C 248.364 154.343, 255.733 138.691, 260.421 124.636 C 266.350 106.860, 270 85.544, 270 68.689 L 270 61.300 276.250 56 C 283.127 50.167, 293.888 39.002, 293.956 37.628 C 293.980 37.148, 293.212 37.365, 292.250 38.110 C 290.825 39.214, 290.854 39.050, 292.405 37.233 C 294.506 34.771, 295.472 34.312, 294.475 36.250 C 294.121 36.938, 295.207 35.925, 296.889 34 C 300.102 30.322, 300.660 29, 299 29 C 298.450 29, 298 29.620, 298 30.378 C 298 32.611, 295.659 34.045, 293.966 32.848 C 292.738 31.980, 292.771 31.898, 294.167 32.343 C 295.132 32.650, 296.085 32.222, 296.429 31.326 C 296.878 30.153, 296.595 29.956, 295.261 30.514 C 286.595 34.137, 268.096 38.496, 266.817 37.217 C 266.360 36.760, 267.452 35.313, 269.243 34.002 C 271.082 32.656, 271.903 32.354, 271.128 33.309 C 270.368 34.245, 270.214 35, 270.784 35 C 273.105 35, 284.912 20.695, 288.373 13.690 C 290.368 9.654, 292 5.818, 292 5.167 C 292 4.478, 289.805 5.212, 286.750 6.923 C 280.173 10.606, 268.544 15.166, 259.812 17.486 L 253.124 19.263 247.840 14.641 C 241.405 9.012, 230.736 3.610, 222 1.557 C 214.053 -0.310, 200.478 -0.313, 192.788 1.551 M 203.750 1.732 C 206.088 1.943, 209.912 1.943, 212.250 1.732 C 214.588 1.522, 212.675 1.349, 208 1.349 C 203.325 1.349, 201.412 1.522, 203.750 1.732 M 183 6 C 182.175 6.533, 181.950 6.969, 182.500 6.969 C 183.050 6.969, 184.175 6.533, 185 6 C 185.825 5.467, 186.050 5.031, 185.500 5.031 C 184.950 5.031, 183.825 5.467, 183 6 M 285 9 C 281.975 10.598, 279.855 11.927, 280.290 11.953 C 280.724 11.979, 282.806 11.119, 284.916 10.043 C 287.026 8.966, 288.977 8.311, 289.253 8.586 C 289.528 8.861, 290.019 8.392, 290.345 7.543 C 290.671 6.694, 290.839 6.021, 290.719 6.047 C 290.598 6.073, 288.025 7.402, 285 9 M 176.441 9.555 C 174.577 11.049, 174.589 11.067, 176.750 10.020 C 177.988 9.420, 179 8.720, 179 8.465 C 179 7.700, 178.481 7.921, 176.441 9.555 M 238.500 9.663 C 241.055 12.083, 247.333 16.177, 245.817 14.435 C 244.891 13.371, 242.641 11.649, 240.817 10.608 C 238.993 9.567, 237.950 9.142, 238.500 9.663 M 164.034 18.034 C 160.166 21.903, 157 25.567, 157 26.175 C 157 26.784, 158.830 25.203, 161.067 22.662 C 163.303 20.121, 166.984 16.458, 169.246 14.521 C 171.509 12.584, 172.845 11, 172.214 11 C 171.584 11, 167.903 14.166, 164.034 18.034 M 20.200 14.200 C 19.540 14.860, 19.014 15.873, 19.030 16.450 C 19.047 17.027, 19.533 16.688, 20.111 15.695 C 20.997 14.171, 21.422 14.093, 22.831 15.195 C 24.326 16.364, 24.357 16.318, 23.128 14.750 C 21.496 12.670, 21.693 12.707, 20.200 14.200 M 274 14 C 273.175 14.533, 272.950 14.969, 273.500 14.969 C 274.050 14.969, 275.175 14.533, 276 14 C 276.825 13.467, 277.050 13.031, 276.500 13.031 C 275.950 13.031, 274.825 13.467, 274 14 M 249.924 18.250 C 251.258 19.762, 253.058 20.964, 253.924 20.921 C 255.274 20.853, 255.284 20.763, 254 20.294 C 253.175 19.992, 251.375 18.790, 250 17.623 L 247.500 15.500 249.924 18.250 M 282.057 20.750 C 280.227 23.363, 279.578 24.743, 280.615 23.817 C 282.427 22.200, 286.499 16, 285.749 16 C 285.549 16, 283.888 18.137, 282.057 20.750 M 31.500 25 C 35.874 29.400, 39.678 33, 39.953 33 C 40.228 33, 36.874 29.400, 32.500 25 C 28.126 20.600, 24.322 17, 24.047 17 C 23.772 17, 27.126 20.600, 31.500 25 M 275.437 29.250 L 272.500 32.500 275.750 29.563 C 277.538 27.948, 279 26.485, 279 26.313 C 279 25.540, 278.175 26.221, 275.437 29.250 M 155 31 C 154.411 32.100, 154.155 33, 154.430 33 C 154.705 33, 155.411 32.100, 156 31 C 156.589 29.900, 156.845 29, 156.570 29 C 156.295 29, 155.589 29.900, 155 31 M 14.195 32.500 C 14.215 34.150, 14.439 34.704, 14.693 33.731 C 14.947 32.758, 14.930 31.408, 14.656 30.731 C 14.382 30.054, 14.175 30.850, 14.195 32.500 M 41.904 34.315 C 43.455 36.261, 51 42.419, 51 41.741 C 51 41.505, 48.638 39.343, 45.750 36.934 C 42.862 34.526, 41.132 33.347, 41.904 34.315 M 151.624 37.539 C 150.659 40.053, 150.943 40.702, 152.122 38.675 C 152.706 37.671, 152.973 36.639, 152.715 36.382 C 152.458 36.124, 151.966 36.645, 151.624 37.539 M 13.286 42.500 C 13.294 45.250, 13.488 46.256, 13.718 44.736 C 13.947 43.216, 13.941 40.966, 13.704 39.736 C 13.467 38.506, 13.279 39.750, 13.286 42.500 M 271.750 38.662 C 272.438 38.940, 273.563 38.940, 274.250 38.662 C 274.938 38.385, 274.375 38.158, 273 38.158 C 271.625 38.158, 271.063 38.385, 271.750 38.662 M 283 47.500 C 278.903 51.625, 275.775 55, 276.050 55 C 276.325 55, 279.903 51.625, 284 47.500 C 288.097 43.375, 291.225 40, 290.950 40 C 290.675 40, 287.097 43.375, 283 47.500 M 62 49.430 C 62 49.705, 62.900 50.411, 64 51 C 65.100 51.589, 66 51.845, 66 51.570 C 66 51.295, 65.100 50.589, 64 50 C 62.900 49.411, 62 49.155, 62 49.430 M 14.158 52 C 14.158 53.375, 14.385 53.938, 14.662 53.250 C 14.940 52.563, 14.940 51.438, 14.662 50.750 C 14.385 50.063, 14.158 50.625, 14.158 52 M 67 52.430 C 67 52.705, 67.900 53.411, 69 54 C 70.100 54.589, 71 54.845, 71 54.570 C 71 54.295, 70.100 53.589, 69 53 C 67.900 52.411, 67 52.155, 67 52.430 M 147.360 62 C 147.360 67.225, 147.529 69.362, 147.735 66.750 C 147.941 64.138, 147.941 59.862, 147.735 57.250 C 147.529 54.638, 147.360 56.775, 147.360 62 M 271.500 57.625 C 269.702 59.155, 269.334 59.763, 270.582 59.143 C 272.415 58.233, 275.853 54.941, 274.872 55.036 C 274.668 55.056, 273.150 56.221, 271.500 57.625 M 77.441 58.445 C 78.509 59.300, 79.821 60, 80.358 60 C 81.628 60, 81.061 59.538, 78 58.080 C 75.643 56.958, 75.611 56.978, 77.441 58.445 M 268.349 69 C 268.349 73.675, 268.522 75.587, 268.732 73.250 C 268.943 70.912, 268.943 67.087, 268.732 64.750 C 268.522 62.412, 268.349 64.325, 268.349 69 M 87 63 C 87.825 63.533, 88.950 63.969, 89.500 63.969 C 90.050 63.969, 89.825 63.533, 89 63 C 88.175 62.467, 87.050 62.031, 86.500 62.031 C 85.950 62.031, 86.175 62.467, 87 63 M 125.750 74.662 C 126.438 74.940, 127.563 74.940, 128.250 74.662 C 128.938 74.385, 128.375 74.158, 127 74.158 C 125.625 74.158, 125.063 74.385, 125.750 74.662 M 132.269 75.693 C 133.242 75.947, 134.592 75.930, 135.269 75.656 C 135.946 75.382, 135.150 75.175, 133.500 75.195 C 131.850 75.215, 131.296 75.439, 132.269 75.693 M 140.750 76.706 C 141.988 76.944, 144.012 76.944, 145.250 76.706 C 146.488 76.467, 145.475 76.272, 143 76.272 C 140.525 76.272, 139.512 76.467, 140.750 76.706 M 30.958 85.250 C 33.410 87.862, 35.548 90, 35.708 90 C 36.459 90, 35.665 89.102, 31.250 84.958 L 26.500 80.500 30.958 85.250 M 267.252 85.500 C 267.263 87.700, 267.468 88.482, 267.707 87.238 C 267.946 85.994, 267.937 84.194, 267.687 83.238 C 267.437 82.282, 267.241 83.300, 267.252 85.500 M 13.168 91.715 C 13.324 96.138, 13.366 96.213, 13.731 92.703 C 14.083 89.326, 14.368 88.980, 16.313 89.577 C 18.868 90.362, 18.432 89.756, 15.250 88.100 C 13.058 86.960, 13.004 87.054, 13.168 91.715 M 20 91 C 20.825 91.533, 22.175 91.945, 23 91.914 C 23.989 91.878, 23.819 91.567, 22.500 91 C 19.751 89.819, 18.172 89.819, 20 91 M 266.195 93.500 C 266.215 95.150, 266.439 95.704, 266.693 94.731 C 266.947 93.758, 266.930 92.408, 266.656 91.731 C 266.382 91.054, 266.175 91.850, 266.195 93.500 M 28.750 93.662 C 29.438 93.940, 30.563 93.940, 31.250 93.662 C 31.938 93.385, 31.375 93.158, 30 93.158 C 28.625 93.158, 28.063 93.385, 28.750 93.662 M 35.269 94.693 C 36.242 94.947, 37.592 94.930, 38.269 94.656 C 38.946 94.382, 38.150 94.175, 36.500 94.195 C 34.850 94.215, 34.296 94.439, 35.269 94.693 M 18 111.383 C 18 112.456, 20.975 118, 21.551 118 C 21.826 118, 21.308 116.537, 20.399 114.750 C 18.542 111.100, 18 110.339, 18 111.383 M 30 129.500 C 31.866 131.425, 33.617 133, 33.892 133 C 34.167 133, 32.866 131.425, 31 129.500 C 29.134 127.575, 27.383 126, 27.108 126 C 26.833 126, 28.134 127.575, 30 129.500 M 255.624 132.539 C 254.659 135.053, 254.943 135.702, 256.122 133.675 C 256.706 132.671, 256.973 131.639, 256.715 131.382 C 256.458 131.124, 255.966 131.645, 255.624 132.539 M 253.162 138.543 C 251.487 142.220, 251.807 143.005, 253.618 139.662 C 254.464 138.100, 254.969 136.636, 254.741 136.407 C 254.512 136.179, 253.802 137.140, 253.162 138.543 M 42 138.493 C 42 139.170, 50.123 143.211, 50.575 142.758 C 50.785 142.549, 48.941 141.398, 46.478 140.202 C 44.015 139.005, 42 138.236, 42 138.493 M 35 149.906 C 35 150.405, 35.900 150.577, 37 150.290 C 38.100 150.002, 39 149.594, 39 149.383 C 39 149.173, 38.100 149, 37 149 C 35.900 149, 35 149.408, 35 149.906 M 52.750 149.662 C 53.438 149.940, 54.563 149.940, 55.250 149.662 C 55.938 149.385, 55.375 149.158, 54 149.158 C 52.625 149.158, 52.063 149.385, 52.750 149.662 M 36 152.373 C 36 153.453, 39.972 161, 40.541 161 C 40.816 161, 40.076 159.088, 38.897 156.750 C 36.579 152.153, 36 151.278, 36 152.373 M 244 157 C 243.411 158.100, 243.155 159, 243.430 159 C 243.705 159, 244.411 158.100, 245 157 C 245.589 155.900, 245.845 155, 245.570 155 C 245.295 155, 244.589 155.900, 244 157 M 241 162 C 240.411 163.100, 240.155 164, 240.430 164 C 240.705 164, 241.411 163.100, 242 162 C 242.589 160.900, 242.845 160, 242.570 160 C 242.295 160, 241.589 160.900, 241 162 M 45.878 168.846 C 47.554 170.962, 49.717 173.324, 50.685 174.096 C 51.653 174.868, 50.474 173.137, 48.066 170.250 C 43.015 164.194, 41.345 163.123, 45.878 168.846 M 54.183 176.565 C 55.109 177.629, 57.359 179.351, 59.183 180.392 C 63.098 182.625, 62.066 181.517, 56.500 177.510 C 54.173 175.835, 53.204 175.440, 54.183 176.565 M 215.481 194.250 L 205.500 204.500 215.750 194.519 C 225.270 185.248, 226.455 184, 225.731 184 C 225.583 184, 220.971 188.613, 215.481 194.250 M 78.750 188.662 C 79.438 188.940, 80.563 188.940, 81.250 188.662 C 81.938 188.385, 81.375 188.158, 80 188.158 C 78.625 188.158, 78.063 188.385, 78.750 188.662 M 85.762 189.707 C 87.006 189.946, 88.806 189.937, 89.762 189.687 C 90.718 189.437, 89.700 189.241, 87.500 189.252 C 85.300 189.263, 84.518 189.468, 85.762 189.707 M 74.441 202.555 C 72.577 204.049, 72.589 204.067, 74.750 203.020 C 75.987 202.420, 77 201.720, 77 201.465 C 77 200.700, 76.481 200.921, 74.441 202.555 M 64 207.500 C 62.625 208.286, 61.950 208.929, 62.500 208.929 C 63.050 208.929, 64.625 208.286, 66 207.500 C 67.375 206.714, 68.050 206.071, 67.500 206.071 C 66.950 206.071, 65.375 206.714, 64 207.500 M 58 210 C 57.175 210.533, 56.950 210.969, 57.500 210.969 C 58.050 210.969, 59.175 210.533, 60 210 C 60.825 209.467, 61.050 209.031, 60.500 209.031 C 59.950 209.031, 58.825 209.467, 58 210 M 192.203 213.429 C 187.558 216.713, 186.905 217.652, 190.827 215.406 C 192.657 214.357, 194.624 212.938, 195.199 212.250 C 196.677 210.483, 195.984 210.756, 192.203 213.429 M 38.750 215.662 C 39.438 215.940, 40.563 215.940, 41.250 215.662 C 41.938 215.385, 41.375 215.158, 40 215.158 C 38.625 215.158, 38.063 215.385, 38.750 215.662 M 33.750 216.662 C 34.438 216.940, 35.563 216.940, 36.250 216.662 C 36.938 216.385, 36.375 216.158, 35 216.158 C 33.625 216.158, 33.063 216.385, 33.750 216.662 M 24.762 217.707 C 26.006 217.946, 27.806 217.937, 28.762 217.687 C 29.718 217.437, 28.700 217.241, 26.500 217.252 C 24.300 217.263, 23.518 217.468, 24.762 217.707 M 7 219.430 C 7 219.705, 7.900 220.411, 9 221 C 10.100 221.589, 11 221.845, 11 221.570 C 11 221.295, 10.100 220.589, 9 220 C 7.900 219.411, 7 219.155, 7 219.430 M 180.750 220.572 C 177.012 222.600, 177.239 223.445, 181 221.500 C 182.650 220.647, 184 219.735, 184 219.474 C 184 218.831, 183.893 218.867, 180.750 220.572 M 23 228 C 23.825 228.533, 24.950 228.969, 25.500 228.969 C 26.050 228.969, 25.825 228.533, 25 228 C 24.175 227.467, 23.050 227.031, 22.500 227.031 C 21.950 227.031, 22.175 227.467, 23 228 M 166 228 C 165.175 228.533, 164.950 228.969, 165.500 228.969 C 166.050 228.969, 167.175 228.533, 168 228 C 168.825 227.467, 169.050 227.031, 168.500 227.031 C 167.950 227.031, 166.825 227.467, 166 228 M 128.750 239.662 C 129.438 239.940, 130.563 239.940, 131.250 239.662 C 131.938 239.385, 131.375 239.158, 130 239.158 C 128.625 239.158, 128.063 239.385, 128.750 239.662 M 64.750 240.662 C 65.438 240.940, 66.563 240.940, 67.250 240.662 C 67.938 240.385, 67.375 240.158, 66 240.158 C 64.625 240.158, 64.063 240.385, 64.750 240.662 M 122.750 240.662 C 123.438 240.940, 124.563 240.940, 125.250 240.662 C 125.938 240.385, 125.375 240.158, 124 240.158 C 122.625 240.158, 122.063 240.385, 122.750 240.662 M 71.250 241.689 C 72.213 241.941, 73.787 241.941, 74.750 241.689 C 75.713 241.438, 74.925 241.232, 73 241.232 C 71.075 241.232, 70.287 241.438, 71.250 241.689 M 115.250 241.689 C 116.213 241.941, 117.787 241.941, 118.750 241.689 C 119.713 241.438, 118.925 241.232, 117 241.232 C 115.075 241.232, 114.287 241.438, 115.250 241.689 M 82.250 242.716 C 83.763 242.945, 86.237 242.945, 87.750 242.716 C 89.263 242.487, 88.025 242.300, 85 242.300 C 81.975 242.300, 80.737 242.487, 82.250 242.716 M 101.768 242.725 C 103.565 242.947, 106.265 242.943, 107.768 242.715 C 109.271 242.486, 107.800 242.304, 104.500 242.310 C 101.200 242.315, 99.971 242.502, 101.768 242.725" stroke="none" fill="currentColor" fill-rule="evenodd"/></svg>