<svg xmlns="http://www.w3.org/2000/svg" width="50" height="50" viewBox="0 0 50 50" version="1.1"><path d="M 49 18.500 C 49 18.775, 49.225 19, 49.500 19 C 49.775 19, 50 18.775, 50 18.500 C 50 18.225, 49.775 18, 49.500 18 C 49.225 18, 49 18.225, 49 18.500 M 22 19.500 C 22 19.775, 22.225 20, 22.500 20 C 22.775 20, 23 19.775, 23 19.500 C 23 19.225, 22.775 19, 22.500 19 C 22.225 19, 22 19.225, 22 19.500 M 14 40.500 C 14 40.775, 14.225 41, 14.500 41 C 14.775 41, 15 40.775, 15 40.500 C 15 40.225, 14.775 40, 14.500 40 C 14.225 40, 14 40.225, 14 40.500" stroke="none" fill="#ff643c" fill-rule="evenodd"/><path d="M 14.500 1.903 C 9.523 4.216, 3.592 10.313, 1.549 15.218 C -0.592 20.357, -0.415 30.513, 1.903 35.500 C 4.216 40.477, 10.313 46.408, 15.218 48.451 C 19.992 50.440, 30.008 50.440, 34.782 48.451 C 44.184 44.535, 51.010 33.838, 50.985 23.063 C 50.975 19.109, 50.634 17.029, 50.126 17.831 C 49.529 18.772, 49.102 18.262, 48.667 16.087 C 47.863 12.064, 40.564 4.184, 35.500 1.871 C 30.112 -0.590, 19.831 -0.574, 14.500 1.903 M 17.885 3.320 C 12.205 5.444, 8.237 8.740, 5.254 13.815 C 3.003 17.645, 2.500 19.700, 2.500 25.078 C 2.500 30.656, 2.961 32.402, 5.526 36.552 C 7.402 39.586, 10.414 42.598, 13.448 44.474 C 17.613 47.049, 19.336 47.500, 25 47.500 C 30.664 47.500, 32.387 47.049, 36.552 44.474 C 39.586 42.598, 42.598 39.586, 44.474 36.552 C 47.049 32.387, 47.500 30.664, 47.500 25 C 47.500 19.336, 47.049 17.613, 44.474 13.448 C 38.897 4.427, 27.022 -0.096, 17.885 3.320 M 15.587 6.032 C 7.341 10.147, 5.548 13.924, 11.750 14.116 C 13.813 14.180, 14.694 14.441, 13.708 14.697 C 11.670 15.227, 11.621 14.987, 16.524 28.500 C 20.107 38.376, 20.008 38.379, 23.028 28.302 C 24.069 24.827, 23.992 23.546, 22.509 19.662 C 21.551 17.154, 20.032 14.906, 19.134 14.667 C 18.235 14.428, 20.425 14.232, 24 14.232 C 27.575 14.232, 29.742 14.432, 28.815 14.677 C 27.134 15.121, 27.691 17.168, 34.613 36 C 35.442 38.253, 38.998 28.211, 38.999 23.618 C 39 21.448, 38.096 18.273, 36.950 16.418 L 34.899 13.101 37.068 10.932 C 38.832 9.168, 38.981 8.587, 37.868 7.815 C 31.781 3.591, 22.041 2.812, 15.587 6.032 M 43.035 16.890 C 43.016 18.204, 41.160 24.385, 38.912 30.626 C 36.664 36.867, 34.995 42.486, 35.205 43.115 C 35.789 44.868, 42.788 37.752, 44.493 33.670 C 46.382 29.151, 46.385 20.298, 44.500 17 L 43.071 14.500 43.035 16.890 M 4.633 18.515 C 3.292 22.008, 4.045 30.118, 6.120 34.533 C 8.148 38.846, 14.192 44.846, 14.782 43.130 C 15.119 42.148, 7.098 18.852, 6.019 17.683 C 5.605 17.233, 4.981 17.608, 4.633 18.515 M 0.336 25 C 0.336 29.125, 0.513 30.813, 0.728 28.750 C 0.944 26.688, 0.944 23.313, 0.728 21.250 C 0.513 19.188, 0.336 20.875, 0.336 25 M 21.321 36.250 C 19.605 40.788, 18.407 44.837, 18.659 45.250 C 19.482 46.594, 30.999 46.128, 31.010 44.750 C 31.024 42.966, 25.644 28, 24.988 28 C 24.688 28, 23.038 31.712, 21.321 36.250" stroke="none" fill="#fc643c" fill-rule="evenodd"/></svg>